<mxfile host="app.diagrams.net" agent="Mozilla/5.0 (Windows NT 10.0; Win64; x64) AppleWebKit/537.36 (KHTML, like Gecko) Chrome/131.0.0.0 Safari/537.36 Edg/131.0.0.0" version="26.0.6">
  <diagram name="Page-1" id="-lYEhjhRESvAPX2mkokX">
    <mxGraphModel dx="1642" dy="452" grid="1" gridSize="10" guides="1" tooltips="1" connect="1" arrows="1" fold="1" page="1" pageScale="1" pageWidth="827" pageHeight="1169" math="0" shadow="0">
      <root>
        <mxCell id="0" />
        <mxCell id="1" parent="0" />
        <mxCell id="rBa0YoAANimObUDzyaQW-15" value="Joueur" style="shape=umlActor;verticalLabelPosition=bottom;verticalAlign=top;html=1;outlineConnect=0;" vertex="1" parent="1">
          <mxGeometry x="30" y="76" width="20" height="44" as="geometry" />
        </mxCell>
        <mxCell id="rBa0YoAANimObUDzyaQW-16" value="User Case 1 : DÃ©roulement de l&#39;escape game" style="text;html=1;align=center;verticalAlign=middle;resizable=0;points=[];autosize=1;strokeColor=none;fillColor=none;" vertex="1" parent="1">
          <mxGeometry x="80" y="8" width="270" height="30" as="geometry" />
        </mxCell>
        <mxCell id="rBa0YoAANimObUDzyaQW-17" value="User Case 2 : Indices" style="text;html=1;align=center;verticalAlign=middle;resizable=0;points=[];autosize=1;strokeColor=none;fillColor=none;" vertex="1" parent="1">
          <mxGeometry x="760" y="8" width="140" height="30" as="geometry" />
        </mxCell>
        <mxCell id="rBa0YoAANimObUDzyaQW-20" value="" style="shape=image;verticalLabelPosition=bottom;labelBackgroundColor=default;verticalAlign=top;aspect=fixed;imageAspect=0;image=data:image/png,iVBORw0KGgoAAAANSUhEUgAAAgAAAAIACAYAAAD0eNT6AAAACXBIWXMAADsOAAA7DgHMtqGDAAAAGXRFWHRTb2Z0d2FyZQB3d3cuaW5rc2NhcGUub3Jnm+48GgAAIABJREFUeJzt3XeYXVW5x/HvTHohCSGEkhAgCRBKAGkqUpUiHcR2FVAQ6QhW7GKXq1dFrBcBBQFBRbqgNFGUJkjoJDRDCySkkzpz7h9r5jKOU845e73v2uX3eZ73wYdH9n7fNbuss/faa4GIiIiIiIiIiIiIiIiIiIiIiIiIiIiIiIiIiIiIiIiI5EVL6gRE6tQCbAFsDmzSEVOBtYDhwGhgJDAoVYJSCauAJcBC4DVgHjATmNXxz0eAR4FaqgRF6qUOgOTZtsBbgd2AXQg3e5G8mwf8FfgzcDMwI206Ij1TB0DyZiPgPcAHgWlJMxGJ42ngcuAXwGNpUxERyZcBwDuBvxEenSoUZY07gMOBVkREKmwocCrwJOkvzAqFZ8wCTgaGICJSMQehG79C8S/gKPQ6VkQq4A3AX0h/4VUo8hR/BrZBxNGA1AlIZQwAPgVcDGycOBeRvNkQOJZwnnR2kEVM6bGTeNgY+CWwa+pERArgTsJrgZmpE5FyUwdArO0LXEaYqEdE6rMYeD9wTepEpLz0CkAsHUd45D88dSIiBTMEeDewgvDpoEh06gCIhVbgR8CX0ffOIs1qBfYCxgM3oHEBEpk6ABJbC/AT4ITUiYiUxI7AJMLrAHUCJBp1ACSmFuDH6OYvEtsbgA2Aa1EnQCJRB0Bi0i9/ETtvICyI9YfUiUg5qAMgsZwOfD51EiIltxMwF7gndSJSfPoMUGLYB7gOGJg6EZEKaCNMpa0nAZKJOgCS1VTgXvSdv4in+cD2hKWGRZqiT7Qki1bgfHTzF/G2JnAReo0rGejgkSw+CxydOgmRipoELAH+ljoRKSa9ApBmbQPcDQxOnYhIha0gvAp4OHUiUjx6BSDNOgfd/EVSGwL8MHUSUkzqAEgz3oFW9hPJiz0IXwWINESvAKRRgwiPGzdJnYiI/L/HgenAqtSJSHHou21p1IdIf/NvJ4w/uAX4B+Hi9wJhQJQugGJpEDASWB+YRnj//lbCfP0pn6huBnwQODdhDiJSYq2Em20tUcwGPg1MsC5UpEETgc8Az5Hu/HgUPdUVESMHk+bCNpewxoAGHUreDQFOAuaR5lw5wL5EEami2/C/oF1KWABFpEjGAZfhf77c7FGciFTLJvheyFahlQWl+E4mHMte5007MNmlMhGpjM/hdxF7DTjQpywRcwcRjmmv8+fTPmWJSFU8iM/FazVwmFNNIl4OxO9JwH1ONYlIBUzD79eLHvtLWZ2C33m0qVNNIlJyH8HnonWpV0EiifwGn3PpZK+CRKTcPC5a8wgjp0XKbC3CZ63qTItIIbyI/QVLj/6lKjxeBTznVo2IlNZU7C9Ws9EkP1IdQ4DnsT+vNvYqSIpJqwFKf7Zy2MePgJUO+xHJgxWEY97adId9SIGpAyD9mWq8/XbgYuN9iOTNL4E2431Yn7tScOoASH+mGG//bsIrAJEqeZ6wkqUl63NXCk4dAOmP9UVEc5dLVd1qvH09AZA+DUydgGQyANi2IzYlrAk+GRgBrNnxz7wPrtOsZVJV9xpvfx/CYMAsVgJLgfkd/3wSeIKwLPgDwD+xf5UhIh0mECbmuQpYgP1IYuvYMm7ziBTGdNKff1ljPnAlcCqwftzmERGAocD7gRsJc+WnPuljxtiI7SRSJONIf/7FjNXAHwjXqiER20mkkkYApxEm9Uh9cltF3l9RiFgZQvrzzyrmAGcCo2I1lkhVDAQ+is+UoalDpMpSn3/W8QrhR4zGm4nUYQfgHtKfuOoAiNhLff55xQPAWyK1mUjpDAbOJkyMk/pkVQdAxEfq888z2oHvotd+Iv9mEvB30p+g6gCI+Ep9/qWIewmfK4tU3p6ET2lSn5TqAIj4S33+pYpXgd0itJ9IYR0CvEb6k1EdAJE0Up9/KWM58M7sTShSPEdTvm/61QEQaUzq8y91rAY+mLURRYrkYGAV6U++PIRIlaU+//IQq9GTAKmIPYBlpD/p8hIiVZb6/MtLrAD2ytiW0qCW1AlUzGTCEqBjUieSIzoGpcrUCX7dfGA74JnEeVSGlgP2Mwi4GN38RUR6siZwOZonwI06AH6+A7wpdRIiIjm2I/DN1ElUhR6/+ngL8BfU3j1Rm0iV6RXAf2oHdiFMjiaGdPG1N5Aw89U2qRPJKR2DUmXqAPTsQcJ4gNWpEykzvQKwdyq6+YuINGI6cGLqJMpOv75sjQCeBtZOnUiO6RiUKtMTgN7NBTYGlqROpKz0BMDWiejmLyLSjHHAsamTKDP9+rIzBHgKWD91IjmnY1CqTE8A+vYiYf6U5akTKSM9AbDzLnTzFxHJYj3g0NRJlJU6AHaOTJ2AiEgJ6FpqRI9fbUwAngUGOO93NnAVcB1hOs3ZwNKM27R+RKljUKos7+fXCGADwmC8AwhLmE/MmlSDVnfk8JLzfkWachq+C2k8RxgsY9Hh0GJAInaKdn4NBD4MPO+Qe9c42aAWERNX4XdiXAWsYVhL0S5QIkVS1PNrDeBqh/w74wrDWkSiGUBY1crjpPgB9uM4inqBEimCIp9frcA5DjXUgHlozJoUwA74nBBX4XNCFPkCJZJ3RT+/WvF7ErCdQz2Voh5VfFs77ON54AjCohkiIqm0E65FLzrsy+PaWinqAMQ3zWEfXwIWO+xHRKQ/i4AzHfazmcM+RDK5EtvHYP/C9/PCoj+iFMmzspxfAwlfI1nWooGAkekJQHwbG2//KqDNeB8iIo1YTbg2WbK+tlbOwNQJlNAo4+1fb7x9adxAYCNgE2AqsCYwvOOfEL4Kea3jnzOBWYSJmrTWeaD2K4frgZMMtz/acNuVpA5AfNYdgFnG25f+DQV2B3br+OeOwOAGt7ECuAe4vSNu6/h3VaD2Kyfra5PlfCciUazA9j3YSL9SIHLuRR4D0ArsDZwPLCB+O8zv2PbelPPVnNqvZ2U6v0ZGzr17aEVAyb0yndBEyDdv9TRqCHAU8Cj2bdEZTxKmkx7mUJ81tV/fynZ+la0ekYaU7QQoWz31Ggh8BJiD342re7wEnEIxX9Wp/epTtvOrbPWINKRsJ0DZ6qnH7sADpLtxdY9HgX1MK45L7Ve/sp1fZatHpCFlOwHKVk9fhgE/Jf0Nq7f4Cfl+rK32a1zZzq+y1SPSkLKdAGWrpzfTyNev1t7iEWC6URtkofZrTtnOr7LVI9KQsp0AZaunJwcBS0l/c6o3lgAHmrREc9R+zSvb+VW2ekQaUrYToGz1dHcUsJL0N6VGYzXwYYP2aJTaL5uynV9lq0ekIWU7AcpWT1enE1YzS30zajbaO2pIRe2XXdnOr7LVI9KQsp0AZaun09sJvwJT34SyRhvhEbw3tV8cZTu/ylZPqbWkTqCErA9S779Z2eoB2AB4mPJMLboI2JKwGpsHtV88ZTu/ylZPqRVpykyRWL5IeW5eENaf+KLj/tR+IiWg3lR8ZesBl62eSYSpYvM8O1wzVgNTgH8Z70ftF1fZzq+y1VNqegIgVXMo5bt5QajpYIf9qP1ESkIdAKma/VInYMijNrWfSEmoAyBVs0nqBAx51Kb2EykJdQCkatZNnYCh9Rz2ofYTKQl1AKRqyvwtsUdtaj+RklAHQKrmpdQJGHrRYR9qP5GSUAdAqmZm6gQMedSm9hMpCXUApGquT52AIY/a1H4iJaFJFeIr20QYZatnA+Apyvct+2pgMjDbeD9qv7jKdn6VrZ5SK9tJLNKf2cAF2C0Fuwy4FbgPeLnj360DbAfsAQwz2u95+Ny81H4iIr0o22pYZasHYCKwsIEc64nngROB4X3sdzhwEvBC5H0vACZkaI9Gqf3iKdv5VbZ6RBpSthOgbPV0OpCwFGyMGi6m7xtXdyOASyPtuw04oOHqs1P7xVG286ts9Yg0pGwnQNnq6epUst3E2oBP09x7yZaO/zbr/k9pYt+xqP2yK9v5VbZ6RBpSthOgbPV0tx8wn8bzXgQcUoL9Z5U6/9T7z6ps51fZ6hFpSNlOgLLV05MJwNnACvrPdxVwIbBRifafVer8U+8/i7KdX2Wrp9T0SUV81gepPuuxMwk4CNgfmMrrA8OeB2YRvhO/GrvR4qn3n1Xq/FPvvxllO7/KVk+pqTHjK9sJULZ6RPKkbOdX2eopNc0EKCIiUkHqAIiIiFSQOgAiIiIVpA5AfCuNt7+G8fZFRJoxynj7K4y3XznqAMS3xHj76xlvX0SkGdbTKS823n7lqAMQ3yLj7U8x3r6ISDMmG29fHYDI1AGIz7oDkHLechGR3lhfmxYab79y1AGI72nj7R+ClnEWkXwZCBxsvA/ra2vlqAMQ3+PG258IHG28DxGRRhyL/RiAx4y3XznqAMRn3QEAOBN9DSAi+TAa+JLDfp5w2EelqAMQ3wMO+1ifsIa6/n4iklIr4Vq0rsO+PK6tIpkMoLnlSZuJc7DvBGh1LxE7RT6/WoEfOtRQA+ahHzxSEFfic1LUgGuwnYCjyBcokbwr6vk1GrjWIf/O+J1hLZWlHpWNmx33dSBhcMxx6OsAEbE1EDiecM3x/CT5Jsd9VYaWVrSxPvAvwusAT88T1ju/lvDJzGyyz0xo/Stdx6BUWd7Pr5HABoRJfg4gfOpnPdq/u9WEr5/mOO9XpGk34Pd4rMghUmWpz78ixLVNt670Sa8A7FyUOgERkRLQtdSIHr/aGQI8if/jsqLRMShVpqdgfXuR8PpheepEykhPAOysAL6bOgkRkQI7C938zejXl60RhMF4a6dOJMd0DEqV6QlA7+YQfv2/ljqRstITAFtLga+nTkJEpIC+im7+pvTry94A4F5g29SJ5JSOQakyPQHo2X3ATkBb6kTKTE8A7LURJs5oT52IiEgBtAMno5u/OXUAfNwNnJ06CRGRAvgf4M7USVSBHr/6GQT8GXhz6kRyRsegVJleAfy7u4FdgZWpE6kCXXx9bUR4t7Vm4jzyRMegVJk6AK+bB2xHmEZdHOgVgK9nCPNpa2SriMjrlgGHoZu/VMBBwCrSz7GdhxCpstTnXx5iNfCOrA0pUiQfJBz4qU++1CFSZanPv9SxCvhA5lYUKaCDCa8DUp+E6gCIpJH6/EsZy4F3Zm9CkeLaDXiV9CejOgAi/lKff6liLrBLhPYTKbwNgDtIf1KqAyDiK/X5lyLuBjaO0XgiZTGIMAFGG+lPUHUARHykPv88ow34b8K1TkR6sD1wF+lPVnUAROylPv+84n40CZpIXQYApwIvk/7EVQdAxE7q88865hDm9R8Qq8FEqmIIcBwwm/QnslUMjtZaIsUyhPTnn1W8BJwBDI/WWiIVNQT4L+B6yjd3wNiI7SRSJONIf/7FjFXAdcB7CdcsEYlsXcIjtSsIc2enPumzxpZxm0ekMKaT/vzLGvOA3wEnAuvEbR6xpoVYiq0V2AbYFtgU2Izwec0oYAwwkvw/Yj+c0JkRqZp3Ar9JnUQ/VgJLgAXAQuBp4AngceCfwAygPVl2ImLqj9j+gvi6XykiuXIWtufWjX6lSBFpNUDpzyzj7b/NePsiefVW4+1bn7tScOoASH+eMt7+joSZEEWqZBKwnfE+1AGQPqkDIP2xvoi0AkcY70Mkb47E/vqrDoCIZDIV+5HEz6HPhqQ6hgIvYH9eab59EcnM42J1kls1Iml9BPvzabZbNSJSapdjf8GaB6ztVZBIIuPxWf77Eq+CpLg0BkDq8VeHfYwFfuiwH5GUfgKs6bCfOxz2ISIVMA37XyydcbJTTSLeTsPvPNrEqSYRqYAH8LlwrQbe4VSTiJeDCHPle5xD/3CqSUQq4rP4/Xp5jXDBFCmDQ4Bl+J0/Z/iUJSJV4fE5YNdYBZziUpmIndPwXcGzHX3+JyIGbsW3E1AjLJYy3qM4kYjWIayS532+/MmjOBGpnoPwv6DVCJ9NnYImC5L8G0r4zn8+ac6V/e1LFJEqaiUsA5riwlYDnieMRdDaAZI3k4DP4TNpVm/xCFriXRqgg0UadTzw08Q5tAP3ArcQRjw/TugcLCGsXy5iZTAwEpgIbArsQFjVb3vSz6vyYeDniXOQAlEHQBo1CHiIcPETkXx4DNiaMHhWpC6pe6xSPKvQZ0YiefMJdPOXBukJgDTrJuBtqZMQEW5B56I0QR0AadbWwN1oZL5ISsuB7YBHUycixTMgdQJSWHMIjxz3Sp2ISIV9CrgmdRJSTHoCIFm0Eh4/7p46EZEK+ivh3GtPnYgUkzoAktUUwid5Y1InIlIhrxI+PXwmcR5SYPoKQLJ6Eng3Yb5zEbG3mnDOPZM4Dyk4jQGQGJ4CFgL7pU5EpAJOAS5PnYQUnzoAEstdhEV7dkydiEiJ/QD4auokpBzUAZCY/oA6ASJWziP8+q+lTkTKQR0Aie16wlKoO6RORKREzgeOQyP+JSJ1AMTCH4BxwE6pExEpgR8CJ6Gbv0SmDoBYqBGeBLwIvB0dZyLNaCMsf/059NhfDGgeALH2duDXwOjUiYgUyALgPcAfUyci5aV5AMTaDcC2wO2pExEpiL8TBtLq5i+m9GhWPCwALgTmA29Fx51IT1YBXwM+CMxLm4qISHzbALcR3mkqFIoQtwDTERGpgIOAWaS/8CoUKWMm8C5ERCpmCHAi4SKY+kKsUHjG48DxwGBERCqsFTiMsLxp6guzQmEZfwEORQOwJQf0GaDkzYaEC+RRwHaJcxGJ4RHgN8ClhF/+IrmgDoDk2ZbAXsBuwK7A2mnTEanLK4TPXm8HbiJ0AERyRx0AKYoWYBqwBTAV2KQjxgIjgDHASGBQqgSlElYBSwifti4lfK43izCOZSbhZv844XG/iIiIiIiIiIiIiIiIiIiIiIiIiIiIiIiIiIiIiIiIiIiIiIiIiIiIiIiIiIiIiIiIiIiIiIiIiIiIiIiIiIiIiIiIiIiIiIiIiIiIiIiIiIgk0JI6AXExGti0S0wAxnWJkcDwbv/N4i6xBFgXmASM8klZRJqwCJgNvEQ4r9foiJHd/n8rgYXA3C7xHDATeKIjFvikLKmoA1A+awA7AG8C3gjsBKyXNCMRKaIXgXuAu4A7O/734qQZSVTqAJTDZOAg4EBgN2Bw2nREpITagH8C1wLXAPcBtaQZSSbqABTXtsARwHuAiYlzEZHqeR64DPgVcH/iXKQJ6gAUyzjgGOBIYKvEuYiIdHoYuAg4H3glcS5SJ3UAimFT4GTgWP5zsJ6ISF6sAC4HvgPMSJyL9EMdgHx7E3AmsA/6W4lIcdSAPxGuX39Pm4r0RjeVfNoK+CLwTvQ3EpFiuwn4DHBv6kTk3+nmki8TgG8D70V/GxEpjxrwa+ATwAuJc5EOA1InIAAMBE4Ffkv4hl83fxEpkxZgOnAC4TPlvxE+K5SEdKNJb0fCyFmN6heRqngYOJowuZAkoicA6QwEPkn4dEYz9YlIlYwndABGAH8G2tOmU016ApDGJoQb/xtTJyIiktidhLlNZqVOpGrUAfC3P3AxMCZ1IiIiObEYOAq4MnUiVaJXAH5agDOA84BhiXMREcmTIYRpzYcBt6A1BlzoCYCPYYRf/YelTkREJOeuIKxzsix1ImWnDoC9McDVwK6pExERKYi7gAOAeakTKTN1AGytC/yBsHKfiIjU72FgX8Kqg2JAHQA7k4DbgI0T5yEiUlRPAXsAsxPnUUrqANgYT/i2dVrqRERECm4WsBvwYupEyqY1dQIlNI4wilU3fxGR7KYCNwJrpU6kbPQEIK4RhMf+OyTOQ0SkbO4B9gSWpk6kLPQEIJ4Wwpz+uvmLiMS3I3Ahum9Fo4mA4vk6YaUrERGxsTmhA3Br6kREOv0XYTGLWsWjHZicsS1FpGeT0XWm8zrznoxtKRLFpoR5rFOfFL3FA8A3gBkO+7otW1OKSD9uw/48ngF8E3jQYV/NxmLComoiyQwmDExJfTJ0j8eAjxPmIoAwFfFSh/0enaEtRaR/R2N/Hi/h9fVKNiIsW/64w34bjXsI12CRJM4i/UnQGauBS4Hd+c+vOw5y2P8yYFRTrSgi9RpFONesz+cDu+23hTAC/3KgzWH/9cZZTbWiSEa7ko8ToQ24hL7nHTjXIY/fNNJ4ItK032J/Pv9vH/vfAriM/Fz/dmuk8USyGkyYpzr1wX8rsGU/ubYSZtCyzuUd9TaeiGRyOPbn8wv0/7nd1oQZT1NfBx9GrwLE0WdJe8C/ChxHfRM57eyQz0JgaF0tJyJZDQUWYH9ev7GOXFqAo4CXHfLpKz5TV8uJZDQZnwF1vcW1wNoN5PsNh5zObyAfEcnuF9if119rIJ+1gesdcuotlqKF18RBqoN8FXAGjU/ffK9Dbns3mJOIZLMv9uf1XQ3m1AJ8jjAgOcU18roG8xVpyDtJc2DPo7mBLmOxH6jzKjCwidxEpHmDsH8NsBpYs4nc3grMN86ttzi8iXxF+jUCeA7/A/o5+h/o1xuPwUKXNJmbiGTza+zP78OazG1rwkBC7+vlbGB4kzlXjhZVqN8ngAnO+3wC2IUwyrUZb4uYS2+ucdiHiPwnj3Ov2WvIDOAtwKyIudRjImESNJFo1ifMjuX9y79zJr9mPWGc40pgTMYcRaQ5YwljgyzP8Ucz5jgBeNY4x+6xGFgvY94i/+98fA/guYRVr7KY5JDnzRlzFJFsbsP+PJ+YMcctCOOYPK+hP8+YswgA2+A749Uywrf7WR3hkOtHI+QpIs37OPbn+fsi5LkLsNwh185YTRiHIJLJn/DtuZ4cKe8fOeSa9SmFiGSzJfbn+TmRcj3VIdeu8cdIeUtFHYDvAXsNjX/n35v7jXN9IWKuItKcFuAlbM/1eyLme4Vxrt1jv4i5S4UMxHe+/2dp7pvbnozAfnCQPv8TyYfLsD3XV/L68sBZrYnvoMCH0DwlvdJngL37MGHwipdTCJNnxLAj9gf9rcbbF5H6WJ+Lg4DtI21rPuFa52VL4EOO+5MSGIHPCnqdcUXk/D0WK5oSOWcRac407M/3T0bO+UqHnDvjBTQ5UI/0aKRnHwHWddrXEuC0yNusZxWvLGYDTxrvw8p4YFdgK8KFc1PCY8kxwEjCrx0pr1WEc24B4dfo48BjhNd9twOvpEutaY8RfrBYfvv+psjb+whhkqGRkbfbk/UIAxDPctiXFNyahPntvXqnHzOowfod20UGOVvaAfgu8CDQjt/fVlGsaCfMYPc/wHYUi/W0wBYd/k8Y59w15qFJy6QOX8fvoPwn8Z/CjMH+JveRyDlbWIPQufIcyKkoVzxEmOvC41dqVh/Dti3aCedUTIMIHS6vv2cjyxtLBa0NLMLvgLSYq383h7xjPw6MaU3gTPxnHlOUN+YCXyTfvyB3xb4dYkxQ1t2eDnl3xhJgHYMapCTOwe9gvNKohlOM8475SVBMLcBRwBzS3CQU5Y95wHHkc/6L4dh/+nuCUe7XGufdNb5vVIMU3Ib4TVW5CrtPDP/XOPf7jPLOYgrwF9LeHBTViT8DG5M/1o/Tf2yU9zTCDwuPv90K8vm3S0LzALzuTGCI075+AjxitG3r+a/vNd5+ow4lzFS2S+pEpDJ2I4zfeXfqRLqJOWNfT6yuLY/ht3jPYOBzTvuSgticsHiERw90ATDOsJaFxvkfb5h7I1qAb5P+16CiutEOfJP8vBI4Edt6Y01U1pPx2F+7OmMVsJlhLVIwv8XvohF7Qo2uxjvkbzEQqFEDgfNId+FXKLrGReRj/giPgYBjDfP/tEP+nXGZYR1SINvj923408BQw1re7FBDrPUKmjUIuJo0F3qFore4ivQTq43Dvs6dDPMfBjzjUEONcM1/g2EtUhDX4HeRiLGudl+ONM7/ReP8+9MCXEC6i7xC0Vf8ivSvA17GtsaiX8O6htWXWFIQ2+H3638G9oMuv2xcwy3G+fdH7/wVeY9vktbt2Nb3BeP8WwkDLL3+Xjsa15NrVf8K4Mv49dg/S+hsWLJeoOdR4+335Z2EqUNF8uwM4LCE+7c+R62vMe2EL7K86IuAivJ893+HU01/N67DcxnPrqYQvp5I+ctOoag35pPuW/PT68yx2fiLQw0twJ3GdXRGO8Vb9yGaKj8B+BJ+v/69epkTjbc/y3j7PWkBfgGMTrBvkWaMAc4nzXgA63PU+hoD4cbsdc1sIUzzLBXi+e7/BqeaWrGfCtRq9sK+HJMhX4UiZRyBv20y5FtPLMevY3OTcS1do9JjAarG6zOydmw/m+lqHYd6RjnV0mlN7Ec1KxRW8RL+T67GRsq9r7CcC6CrHfD7oVbJLwKq+ApgO+BAp339DrjbaV/rGW9/IWGlRE+nEVZoFCmidfAfN/MqYdU7S+sbb7/TvYT5FTwcgp4CVILXr//VhCmGvexvVEdnPORXCgAjgFci5a5QpIq5wEh8PRop995ib79S2BK/ador9xSgak8Atsfv1/+F+H42t67x9p8z3n53x2O7ZoKIh7WAY533Odt4+15PAAAeBi5x2tfBVOyLgKp1AL6EzwCWVcDXHPbT1Xjj7Xt3AI523p+IFe8OwPPG27e+1nT3FcJTAGuV+yKgSh0Az3f/FwJPOe2r0xjj7c8z3n5XOwBbOe5PxNKWwLaO+7M+V70HNs4CLnbaV6XGAlSpA/AF/H79f91hP91Zj9BfYLz9rqznGxfx5nlMWy7bC2nm5PgaPk8BAD7jtJ/kqtIB2JzwfsfDLwmr/nmzXqXvVePtd+U5yEjEg+cxbd0B8P4cGMJTgF857etQ9ASyVH6FzyjSlcBkp5q6u77OHJuNdznVMR6/b39rwIOEzw23JHx5IOU2gvC3Po3wt/c6ztrwG9T6XuNaUo2Wn4L9ZGedcaFTTWJsMn4Hzf861dSTO/rIK0bs5VTH4cZ1dMYK4CSq8xRM/tMAwnf6K/A55rwWCdrXuI5bneroyfl95BUzVgNTnWpKpgoXvzOAgQ77WQV8w2E/vVnDePteYwA8Hr2tBPYDfoz9Co2SX23ADwlzaKx02J/XY+UyjgHo9DXCtdbaAODjDvsRQ+sBy/DpMab89Q8wE9tmzCILAAAgAElEQVT6vCY1usS4jhrhl79IV6dif9x5vcPeyriOR5zq6M152NbXGcvxnfNAIvsuPgfKStIt/9npaWxr9Hocdq9xHQ8SevciXQ0gzHZpeex5TQu+mXEdM53q6M2G+L22+bZTTUmU+RXAWsCHnfZ1AWlG/ndl/ZrD47Eb2A+UOpfw6FekqzbCL0tLXoMArV9nDDLefn+eBS5y2teJlHhG0jJ3AE7HZw7uVcA3HfbTH+sOgNc3uNZ/s5uMty/F9Sfj7VuP0+lU9g4AhLlWPH6UjMB/QSfJaBThu3WPR0TWvxrqNRfbOr1W5bN+tOe9MIsUxxrYHnvLneoYb1zHy0519OcCfK7x8/DrvEkEn8bnwFgNbOpUU38WYlur9VTDnaz/ZiJ9KcPxt6ZxDZ6TgvVlKn4rBX7SqSbJaBjwEj4HhdcqVfVYjG2tXj3gMlyApbjKcPxZP8lY5FRHPX6Nz7X+RWCoU01uyjgG4FhgHYf91MjHu/9O1u/DPOZSEJHsrN/Re8yZUK9v4tOxWhc4xmE/ksEgwghRjx5hqukwe/MitvV6dKowrsHrF5gUVxmOv3WMa3jBqY56XY3PNf9p8jEAMpqyPQF4HzDJaV8pVvzri54AiAjAYOPtrzDefqO8rsUbAe922peLsnUAPuq0nxuBe5z2Va8qfPojIv2z7gDk6RUAwF3AzU77+hQ+y8q7KFMHYD9gG6d95e3XP6gDICJBlcYAdPK6Jm+N38Jo5srUAfD6TOPvwF+c9tUI68dy1r8qRCQO6w5A3l4BQFih8A6nfZXmk8CydAC2B/Z02teXnfbTKD0BEBGo3iuATl5fZe0NvMFpX6bK0gHw6pHdD/zRaV+NUgdARKCarwAArgP+4bSvUiwVXIYOwEbA4U77+gr5/ZRMHQARgep9BdDVt5z28x7CqoSFVoYOwMfw+UTtMcL3pnmlDoCIQHWfAABcATzqsJ+BwGkO+zFV9A7AWOBop339N9DutK9mWJ+Uw4y3LyJxWE9Zm+cOQDvwPad9HYvfGikmit4BOBGf1d2eBy522E8W1iflaOPti0gc1udqnjsAABcS1oOxtgZwgsN+zBS5AzAEONlpX98n/wf9UuPtjzLevojEYd0BWGK8/axWAGc77et0CrxIUJE7AEcB6znsZxFwrsN+srJeoUtPAESKwfpcXWi8/Rh+jE+e6xCmoC+konYAWvCb9tfrQMrKOkd1AESKwfpczdNywL3x/OH2KQp6Ly1k0sDBwOYO+1kBnOOwnxj0BEBEQE8AOnm9ut0M2N9hP9EVtQPwCaf9/Ir8LX3ZGz0BEBGwH69ThCcAEAZvX+K0r0JOD1zEDsD2wC4O+6kB33XYTyzWJ6UGAYoUg54AvO4sfD7f3g3Y0WE/URWxA3C6036uBh5x2lcMegKQ3gTCp6nXEyYjWUz4OmMmcBNh+tApybJTflWhJwCve4wwRbCHU5z2U1nrEd7L1xxiZ6eaYtkJ2/bwmmPb+u9qYRxhCtJ6js124HJgqlEuyi+bIh5/3T1gXEPRFsLZBfu/a41w/K7rVFMlfRWfP+TtXgVFNBnbNpnlVEfRLsD7AvObyGMZcKRBPsovm6Idfz15xriGiU51xHQH9n/bGnCmUz2VM4Qwu5PHH/Egp5piWgPbNnnFqY4iXYCPBVZnzOfMyDkpv2yKdPz1ppkOVSNRxIlvDsX+b1sD5lDM9sm9o/H5Az5CmGegiJZh1y6r8Vl0qSgX4L2AVZFyOjZiXsovm6Icf70ZBLQZ5p/3WQB700oYD2D9960BH3CqqVL+ic8f7zivggzMxrZtJjjUUIQL8DhgXsSclgPTIuWm/LIpwvHXlw2N83/KoQYrJ2L/960B93kVVBV74vOHmweMcKrJwn3Yto/HZy5FuAB/zyCv30fKTfllU4Tjry9vNs7/bocarAwH5mL/N64RPguUSK7E54/2Va+CjNyIbfsc4lBD3i/AaxF+cVrkNl35Jc8v78dffw43zt/rkzor38D+b1wDfudVUBZFmAdgMnCgw35WAj9x2I+lOcbb91h8Ke8OJAxItfCOCNtQftVm/RnaXOPtW/sRYeyJtUOAjRz2k0kROgCnAgMc9vNrijPtb2+s81/fePtFsJ/htmPMJ678qs16nM5zxtu39jxhHglrAyjAxEB57wCsQRj97+H7Tvux9Lzx9tUBsJ0gJ8Ysd8qv2qzPUetrjAevKd4/BIx02ldT8t4BOBqfKWhvA+532I81dQDsWb4GGUv2b4iVX7VZn6NFfwIAYbD0Xxz2M4acfxKY5w5AC3CS076+57Qfa9YnpzoAPguLZKH8qk1PAOrjdc0/jRzfZ3ObGGGw0GYO+5kJXOuwHw96AmDvRcNtzyOMkM9C+VWbngDU5yrgSYf9bEKY7jqX8twB8BpAcQ7l+VXyEmEWMCvjgMGG2y8Cy4tGjElWlF91DSU8drayCr8pwa21E679Hj7itJ+G5bUDMIUwVai1BcAFDvvx0kboBFhpQZ8CWn4HHeNJlPKrrgnYTmP+AuX5sQRwPuEeYG1fwpOA3MlrB+AEfHI7l+LObd2b2cbb95gOOM+ux+Yxc404s9kpv+rS4//GLAbOc9hPCzbraZTSEOBl7GdqWgVMcqrJ0yXYttv7jfMvwkxs3zbI67eRclN+2RTh+OvNB4xz/6Vx/ilsSLxFqfqKV9AXKnU5Cvs/Rg24zKsgZ1/Ftt2+ZJx/ES7AaxJO6Fg5LSfugFfl17wiHH+9+Ypx7mca55/Kb7D/u9eAI7wKKrK/4fPH2NWrIGfWyyZb/wooygV4V2BFpJw+FDEv5ZdNUY6/nlxsnPuRxvmnsgf2f/cacIdTPYW1NT5/iIe8Ckpgd2zb7q/G+RfpAnwU2R8ffilyTsovmyIdf93daZz7W4zzT+kB7P/2NeANXgUV0U/x+SMc51VQAhtg23aW33FjnLvFBXhPmlti9DXsx1Mov8YV7fjrKuZrlZ6izF8AnYD9375G8RecMzMKWIT9H2A+MMKpphRagWXYtV87tu1XxAvwWOBb1Nfu7YTFSCYb5aL8sini8QdhynTLvJdi+4lhaiMJnwRa//0XEe510s1J2Dd+jfJM+9uXR7FtQ8vHWEW9AAOsA3yYMMvYI8BCwoXzceBG4KPAxsY59EX59a+ox99Oxnk/aJh7XpyNzz3oRK+CimQG9g3fDmzqVVBC12LbjpaPhot6AZZyKOrxZ/311FWGuefFZoR7hPUxMMOroP7kZSKgXYDpDvv5I/CEw35Se9R4+5sbb19EGrOF8fYfMd5+HjwO3OSwn+mEe15yeekAeD0S+ZHTflJTB0CkWqzPSetrSl543SP0GqDDOGwHrXXGM8AAn5KSexO2bWl5MSjqI1gph6Ief08Y572DYe550kpYVMr6OFgBjHeqqVd5eALwIXymSPwxtivl5ckj2F5sphKmbBaR9IZgOziyBjxmuP08aQd+5rCfwYRJ2yqtlbA8qHVvaxnhSUOVzMa2Tbcyyruov8CkHIp4/FlPoPaMUd555fVU+ikS/whP/QRgL3y+N76UMNlIlVi/s9vWePsiUh/r2eUeNt5+3szFZ62YjfFZ9r5XqTsAFnOM9+THTvvJE+tRu9sYb19E6mPdGa/CFwDd/cBpP8c47adHKTsAawGHOOznbuBeh/3kjfVJqzmtRfLBugNQlS8AurqPcO+wdijhXphEyg7A+/EZSOYxoCOPrGfu0isAkfRasH8aV+bF0/rice8Ygs+aG7lzP/aDLBZQ7nn/+zKc7Cut9RcbGORdxEFYUh5FO/42Ns53FT5faeXRcMLaMdbHRLKZAVM9AdgBn1+QvyLMJV5FrxFmtrKkpwAiaXkMAFxuvI+8eg24xGE/04HtHPbzH1J1ALwGPvyv037y6j7j7W9vvH0R6Zv1jeN+4+3nndc9xGtA/L9J0QEYBrzXYT93kqNFFxKx7gC8yXj7ItK3Nxtv3/oakncP4DMY8P2Ee6OrFB2Aw4E1HfZT1cF/Xf3DePtvJP2npCJV1Yr9FL1V7wCAz1OA0YQvAkrvFuwHVSwgDOCoupGE6Y8t23pa5JyLNghLyqVIx99041zbCNeQqhsBLMT+2PiTV0GdvH+9bQzs7rCfiwgDOKpuCTDTeB96DSCShvW59zjhGlJ1S4GLHfbzNmCKw37+n3cH4BinfZ7nsI+isH6E90bj7YtIz6zPPT3+f91PHfbRAhzpsJ8kBmC/QE0N+JtXQQWwOTAH2/aOPUq4SI9gpXyKdPw9aJzri8BmkXMusruwPz6epaTjqvbDvvFqwLFeBeXcVOB57Nt7NWEASyxFugBL+RTl+BuL/fieGuFHm8eCbUVwPD73sH28CvJ0KfYNtwQY5VVQjm0API3PwVoDDoiY+wrjXNeImKuUyyhsj72YE+ocZpxr1/gXsFHE3ItqNGE8gHV7X+RVkNejhhHAQQ77+S2wyGE/eTYBuBXfE3b3iNtaHHFbPbGYvljKYZLx9mMe2zHPuf5sQBihvr7jPvNoIfB7h/0chtPXF14dgMPxmZP/Aod95Nl44I84jyQF9oi4LetRx6V8vCZR7Gu8/aJ2ACC8UrwVWNd5v3njcY8ZARzssB83N2L/2OQpwijKqhqH/aCg3iLmOIB7jXN9iDAgVaSrAYR57y2PvVgzynm9/+8pZpBw+docaAGexL6dr/MoxuMJwHjgrQ77OZ/QcFU0GvgDsFWi/Q8Ado60rScibac3WwInGu9DiucUYAvjfcQ6tncl3Ujx6cBN+Mzmmkc1fN7R7wOs47Afc6dj31tqo7rvdkcR1j1I8Wuga/x3pHq+6JDrCsKkGyIAewErsT/uPh8p3+855Npf3EF1ZwncCJ8nMKc61WPqHuwb6ka3avJlBHA76S8GNcKiGTEc7pTvCsIJptcB1TUQOA2fm3+NMLgrhkec8u0vbqW6U67fhH373ulWjZHN8DkQPVYXzJvh+KyrUG+0E75AyGrtjm155f0Q8FHC65Oq/qKpkpGEv/XHsH/n3zXaiPPufJJjzvXEn0iwil0OvA+f9p3qVZCFr2DfQAup3gE4DJ8eaKNxTKT6ZuSgFoUiZsSaVtdrMppG4o9U8xq8APu2/ZJlEdYDSTx+mf8GWOawn7wYBlxNPt9hx/qMyn1VLBFjsY5p608Vm7E3cBXV6gQsA6502M8RFPTrtjfj0/vcw6mePBgCXEv6Hn9v8SrhvWpW2+egFoUiZmxNdgPx+dXZbNwIDI1QZ1HshU+77uhVUEw/xL5hSrtwQg8Gk++bf2fE+hxQrwEUZYkHiWO3HNTSX9xAdToBrfgscPd9ywIsDATebbTtri4hDBgru6GER2wx59y3sn+k7VwQaTsiqf080nb2i7QdS/sSpmQfkjoRB+2ENW6svZeCfa30Nnx6m6kmvvE0mPDOP3XPvt54OFLdI4BXclCPQpEl5hLv65LHclBPvfEHqvEkYEt82nN3i+StngAcbrTdru4jfMJVZoMJgxw9FlKKZQvirCG+FDgnwnZEUvof4qxvsSVxzisvbweuoPxPAh4mvK605nFPjaIVeAH7HtFHvQpKJO8D/vqKMyK1wRhgTg7qUSiaiReIt/z053JQTzNxNeXvBHwS+3Z8joKMd9sV+8ZYDaznVVACwwiDaVKfvM3G3yO2xQdyUI9C0Uz8F/FYL5JlGddT7tcBE/CZGvjNXgVlcTb2DXGzWzX+hhO+GU590maJdmBipPZoAf6cg5oUikYi5jVqQ3xnx7SI2yj3TJse16jvxE469iOFFuDQyNvsyWUO+0hhBHAN4fvSImsh3nrWNeBIwhwDIkUwH/hQxO0dRkEng+lid8KTgFivRPLG4550ODk/Dt6IfS9oFWG++LIZTVhhK3VPPVbcErd5OJDi/wpSlD/aif8j6C85qCtW3E45OwHrEF5NW7ff9l4FNePb2DfADW7V+BlDPpb0jRltxHsN0OmbOahLoegrvkpckyhfx/ceYGzMRsoJj1e333CrpgmzsG+Ao92q8bEmcDfpT0qL+HjEdoLw+Ou8HNSlUPQUFxH/Ee1nclCXRfyDOKsj5smx2LfbE27VNOgN2Be/gnDDLIvxwAOkPxmt4v54TfX/BhIW4Uhdm0LRNX5PnHUwunswB7VZxX2UqxOwFrAS+3ab7lVQI76GfeHXuFVjbwLwKOlPQuvYIlaDdTEAODcHtSkUNeCXwCDi2yYHtVnHQ5Trk+7rsG+zL8VKNuZXAAdG3FZvfuuwDw+TCQN7pqVOxMH7DbbZBhwHfItwQoikUCP88PkgYXBybO8z2GbebEkYGLhR4jxi8bhH5W5m2PWxH6iyChjnVZChafisINVfLAWOwf7v9gy2n64cDMwzrkGh6B4LgHdipwV42riGdkIHfaHxfuqJFwidgaJbi3Cvsv675eqpyYexP0D+5FaNnTcAL5P+ZHuNsGAT+Hx6uEfWhuvHRoSJRlK3q6IacTNhdL6lvR3q+GvHvt5MPjoBc4BtM7dcerdg31Yf9CqmHldgX/BJbtXY2JF8/FJ9jX+faOgUh31enKnl6ncQ+Xi6oihnvAgchc9kLJc71NP1mpqXTsB8YOdMLZfeqdi30+Vu1fRjEOFxmGWxMaeWTWEPYBHpT67uN38IkypZj1xdjt/rm9HA59FSwop48TLwWfwmsBlHOGcsa1pF+Aqpq+0JM26mbu8lhCcgRTUB+1erC7EZeNqwt2J/QMRcXMbbwcAy0p9UXR/7d3e9w/5Pb7jlshnZsc8ZEXJXVDMeAE4jTNHt6RMRcu8vrutl33l5ErAMn4HlVjzmdtndrZo+fAf7Qj/pVk1cR+DzXWh/0dMv/66OdMjhEdLNY70t8N+EeQk8Vu1SFDPaCN+mn0X4BC+VR7Cvta+vc/LyJGA1YaByEXlM4PQtt2r68DD2hW7mVk08p5GPm01/N38Iv3CWOOSSh3d74wiLq3yeMDbhHuBJwviMFaT/eylsY0XH3/rJjr/9rwjHwmHkY1Ka3bFvg6X0vzJfXjoB7RTzB+AW2LfNDLdqerER9kXO8iomkhbCr83UJ06N+m7+nX7tkM8v6sxFpKp+hf15eGmdubwR+/Fd9cY3yPlKeD14Cvt2sf4apU8n9pJUzDjbrZrsBgLnk/5kqdHYzR/CWAXrnJbxnwOPRCRYF/vBfzUam0gmT52AcwmzgBbFOdi3yfFu1fTgd70kFTP2dasmm2HAVaQ/SWqEm3+jo2gH4zNHwRcbzEukKr6M/fk3h3CuN2Inwud5qa9rNcIn50MbzD+V/bBvj9+4VdNNC/afWi0GhngVlMEYwnSWqU+OGuH9Xm+j/fvjsZzzSxTjbyriaSjh5mx9/p3VZH556gTcCoxqsg5PQ7EfWzWHRK9Gtmoi2Ubj927VNG8i+fnUbBGwW4ZaNsFn7fEPZshRpIw+hP151w5MzZDjjuRjYGCN8EXP+hlq8eLxVHhzt2q6OLnJZBuJ49yqac5W5GfmufnAmyLUdLNDrv+MkKdIWbTg8yMixnTq2+DzpKKeeBab1UZjOgH7djjBrZouPKaqnOxWTeP2JD+PxF4lPKKL4T1OOb81Ur4iRecx73+NeIsXbUa+fvjsHqkuC1Oxb4N6v+qIpoXwLteyqDx//vc+8vPN+EvA9Ii1Dcanh39txJxFisxjDfmXaHzwX182JsylkPr6VyN8OfGeiLXFZv054At+pQSbR0q8r/iJWzWNycsEPzXC4iQWS2h6zWOwvUHuIkWyLT7jbr5pkPu6wIMOudcT7cCZBjXGcC729W/iVg0+7zUs19puxgDgh6Q/0DvjGWCKUa1T8bko/dYof5Gi8FhJtQ27a8V4woC81NfDzjib/M0V8G7s6/6wWzWEdw6WxawGxrpV0781gGtIf3B3xkxgQ9OK4SaHOtqweYIhUgTT8elo/9G4jjUJC7alvi52xlX0P9Wxp3HYPzX+lVs1hF+flsXc51ZJ/zYgjFpPfVB3xqP4fP7yTqd6LnGoRSSPLsPnHHuHQy1rEL7PT3197Iz7ydcS8g9gW6/bmLm1jAupkZ/pf3ckDLBIfTB3xj+BdUwrft1AfOayXk0xF3sSyWJzfMYSPYnfI/Fh+CwtXm88T37GGVm/Pm4nTEhnbh/jQmrk4/3/Owiz6qU+iDvjTvxXK/tIpNz7i1841SOSFx6L/tSAk7wK6jCYMD1t6utlZywD3mtacX08Pq/e06OQMxwKWdejkD58Gp93c/XGdcBw04p7NpKwdKp1fatwHsUqktA0wpMv6/NqLmmuGwOAC5vI1yragE+ZVty/9bGv8+MehVi/t3rCo4heDAUu6iWvVHExMMiy6H58vZe8YkeyRS1EnP0en3PqK14F9aAV+HEveaWKX5J2IaGZveQVK1zGU80yLsJ1NGMXE4C768zRK35IOJFS8lqitJ14sxmK5NXO+Fw78rD0dgt+c4rUG3cRrvUpXFxnjs3GY9YFjMH+0fjHrIvowZvJ12C/GvAt04ob83N8av6zV0EiifwVn3Ppp14F1SFPk6fVCMue725acc8+0WS+9UYb4WsMM281LqAG7GFZQA/eD7wWIe9Y0Y7Tu5wGbIbfCby/U00i3g7B5xxqI9EKcX04AlhJ+utrZywnrMDo6W2Rcu8rdrUs4BTj5NsJk0p4GAT8wLieRmMVcKRl0Rl4TYQ0g/SvPURiGwA8jM85lNdl1A8kX19W1YBz8BtjNdahHtOVAb9nnPyTlsl3MQG4w7iWRmMpcJBl0Rntjl9bfMCpJhEvH8Lv/HmLU03NeAth9dLU19uucQd+kwY9Y1zLty2Tt/4V6DESfHfCIjqpD7quMQ/YxbLoSG7Fpz1eBEY51SRibQ3CpDQe585NTjVlsQXwL9Jfd7vGK4Q5bqxZfwFyhWXyjxgn/1nD3Fs6tu/x/W0j8SSwqWHdMe2GX7uY9mRFHFk/Oe0aOzvVlNWGhGnNU19/u8Zq4HOEe4WVLxjXMMMq8VbCpyWWye9nlPta5Gsxn864B7+pfWO5EZ+2WUn4pSBSZNMJY3s8zpnrnWqKZSxwO+mvw93jGuxmXT3QOPclGHVgJhknXuvYR2y7AbMdcm/mZM3TilX1eiN+bXSzU02pTAJOBW4gfMO7hPTHpXUs6aj1BsKg4g0yt2J+tRA+bfVo13byM+99I4YCl5P+uOwes7H5VHCyQ+7rGeRt/gngSuIuWjEAOJP8PfKvAReQdna/rK7Gr63e7VSTpwnAz8jnsekdbYQbwEZZGjSnjsCvHU3f/RprIVyrUx+LPR2bZxP3Wj0I+/PeZDzZkcZJPx0x14n49bwbjTMj1pnKtvitlTCbYj4p6c2hwGLSH4d5i0XAwRnaNW9G4Te5WBvhVUPR5W3CoM64nbhPqqwHQJosfmS9MtxtkfJ8P/n7zKRGeA/oPfGEJc/HdmUZEJjXC1xeoo1wnSmD7+PXbr92qsnD4diPNWsmXiXcW2Kwng3SZAXIM42T/mXG/MaRr2Uou8Z8YO+M9eXNFvg9wl5N8dcJOBTd/OuJNor/JGBn/P7WqwmrC5bJzsAc0h+LPcVvgbUz1me9JsDnM+bXo7ONk/5qhtwOBl4yzq/ZmEn5TtBOnisnPgwM8SkruonosX8jsYiwfGoRDSMMcvRqq6w/nPJqY+Ah0h+LPcVLhGmdm/UN4/y+myG3Xllf7E9sIqd1CI+/Uh8QvcVt2H1Okgcb4/u47us+ZUV3PumPxaLFuU21dHqeq9+9RjkHT3YaTfhaJPWx2Fv8mrBaaqOsp9T/RRM59et646Q/0EAuLcBRhNmbUh8EvcV5wOAGaiqqr+HXpquAHX3KimYSGu3fTKzGb3rWWN6I79/6TJeq0hqA/dPnLDGfMLankfVLrKeFvrqBXOp2m3HS76kzjzeQ3xH+NcK7v0/UWUsZjACew699Z1CsjpX14Nkyx8lNtHcqQ/Bb7KdGGEk+3KWyfDiVfHekbyfcm+rxPuNcbqkzj4bcbJx0fwN/1iWsS5/ngVSLyfeCPlasD+ju8RWfsqL4A+mPy6LGdU20dyrW73W7h8mnXjm3H7CQ9Mdlb9FGuEf191rgMOM8/lRHWzbsj8ZJv72X/a4JfJkwMCj1H7iveBLYuv7mLJUW7D9t6RqrKM6c5zNJf2wWNR5ror1T2BXfX6e3YztffZ5NAx4n/bHZVywi3LN6W9r+AOP9/6H+5qyf9S+Zd3Xb39qEd1wLjPcbI24gzGtdZdvj+3TmGXo/wfJEo/+bj8VNtLe3sfiubLea+h81l9VowtOh1Mdnf7GA0BEY3y3/9xrv99qGW7QO1xonfQIwkDDl8MXAcuP9xYh2wqO/mFMYF9nP8W1/j+Wjs1IHoPlY2ER7e2oBrsS3TX7mUln+tRKuvV4zkmaJ5cAlhHvbQMIXb5b7uzJDu/bKeh3jJwgjKlP/seqNRcA7MrVo+YzH/4nN8S6VNS/vjyvzHI820d6erD/n6h7zyT4JTdm8i2ItojWfcK+z3MflmVq0Fz82TrpI8QSwZbbmLK2P4fu3WAZs41JZczQIsPnI8yDArQjf4Xu2R1mmSY5ta8IYrNTHa17i+/U2XCPfLs5u4P9bZlcTvkV/OHUiOXUO8KDj/oYSXhnl9ZOoPN/E8s7kXWYEIwivn4Y57nMG8BPH/RXJDMI1Weda8JzFRq1XA8x7rCR831/V0beN2IEwUt/z73OBS2WN24B8f7+c11hFficC8pwCu0Y51sLw0AJ8Fp1vJp+I7pGDwlLFsxTns7O8+Bb+f6e8PiL1HhxZhvhpUy1t7+P4t0Xdj3QFgN3xW4o5j2Fyr1ovB4WliN8BYyK0X9UMxXdRlBrhV+OeHsU1aAL5n8ciT7GQcL3Jm73x/3X5LDDSo7iSWZ8wX0LqY9k72gkr45qYlYMCvWI5YZSvNO8t+M/c+Ar5XCBlP/Rosp5oI5+zaU4B5uHfHvt7FFdSAwkLiOV59tjYYfrlzC9zUKBHPI4m24jl+/j//f5JGKiVN7EFoFcAAApGSURBVB+hWhejRqONMOd73owkDGz1bo9fONRWBXvgu15JyjBdRfO4HBRoGe2EiTb0yC2e4aSZDvd35HPA5sHodUBPsRA4MEO7WmkBLsO/PZ6jGDNdFsVo8r10fKz4QKwG68lEyvsYczawT7ymki72JM2MXV/wKK4JaxOWOPX+UiKP0QZcSD7f+UOYytW7TdqBfT2Kq6CT8J+/wStW0f9CRJndkINCY8fFqLdt7af4/13bgWM8imvSRMKSt9cT3t1VYdrgxR21Xke4GOf1Uz9I98RT0/3a2gK4i/TnQuy4JmYj9ebdiYqziFf4z0WIxMYo0szWtQoNpJLGHUyap50zgTUc6qu6gcAZhJlEU9+HYoXL1PRDKP6AinbCgEbNq+3rTaR57L0ETaQi9dsZWIr/cboSHafeNgfuJP09KWv8CxgcuW16dbRDQVbxBGFVJknj86T5u78MbOJQnxTbNGAuaY7RzzjUJ/9pAPBJiv004IjordKHVuBegyIsYyVhdrqhBu0h9WsFbiHNMfAUDoNkpLDWB54mzbH5Z7SseGpTCCvppb5XNRr30di6PlHsRJgsJ3Xx9cT1hJ695MMGpJlUpfNk0YBP6W4t4AHSHJOvkO/BkFWzP/ZL9saKZcB2Ns3QvxPrSDBlPEo+vy2WcJKlmhTnPmCsfYlSEGOAe0hzLLYBb7cvURo0CDiN/M/ZcaxVA9TrZ6RvhO4xBzgePVLLu2+Q7hi5G63xIOFp0D9Idxx+1b5EyWAicB7hFXLq+1r3+JFh3XVrAX5M+saoER6lfQZ9RlMUA4FbSXe83EWYIUyqKeUv/xpwE/qRUhSTgfPJz+RdPyBHM522EGbMSvVIdw5hFKem8C2edYEXSXci/Z0wR4FUy2jSTgbzPLCOeZUS2xTgAtJ1BNqAL5pX2aR9CZ9beTXGY4QV+4Z7FCdmdgFWkO5i/DfUCaiSUYSOX6rjbTlGa7aLmynAOYQ1LLyOm5cJS1Ln2jrYLrqwGriS0BC5eQQimR1PugtyjTAZiNk62pIb4wjjP1Ieax8yr1K8rEGYztvymFoF/JCCXZ/2Jl4vu53wK+10YIJnEeLqJ6S9MD8KTDKvUlLZiPDUMOUxdo51kZLMNOArhOXIYxwry4BLKfgn7PsQlmZtdJallwjLcJ6ILspVMQi4nbQX6OeALa0LFXfTCe/dUx5btxCOcSm/DQif6F1A+GFR72qo84EbgRNw+ErJ8xH6MMJ7r+0IU7KO4/XR+vMJ71KeBB4HHiZMxCDVM57wOH7jhDnMBw4C7kiYg8SzG3AVaT/7fJKwFsbchDlIOsOBqYSxA2sTBqEOISxNPL8jHgJmpUpQJC+mAa+S9tfacuBw60LF3MGkX/99HrCZdaEiImWxJ2m/DKgRBt8cY12omDmONEv6do0VwO7WhYqIlM17qf/dmWX8jDBpkRTDAMLCX6mPm3bgKONaRURK60ukv5DXCANztIhQ/q1FmGEv9fFSA75gXKuISOl9n/QX8xowE30hkGebkf4zv87IxTztIiJF10r4Hjb1Rb1GWB3sUNtypQn7AwtIf3zUgEtIsD67iEhZDQKuJ/3FvUZ4t/stNBNlHrQAZ5BuHZLu8SfC510iIhLRSNLO4d49fg+MNa1Y+jIOuJr0x0Fn/BWtSyIiYmY06edy7xqzCRPNiK89CLM2pv77d8Y/0CBRERFzY4B7SX/R74zVhFcCmubV3gDgTNJ/39817kdPgkRE3IwDHiT9xb9r/J20UxiX3QakXyuiezxA+PRQREQcrQM8QvqbQNeYCxxiWXRFvYP000N3jwcJ87qLiEgC4wm/wlLfDLpGO3AuaRefKYsxwPmk/5t2j39QsPXZRUTKaAz5+jqgM14k/HKV5hxAGGSZ+u/YPe5B7/xFRHJjJHAz6W8OPcXl6FFxI8YDF5L+79ZT/JnXlzEXEZGcGEGYiCX1TaKneAV4n13ppXEEYRxF6r9XT3E9MMyudBERyWIwYSrW1DeLvm4iG5hVX1zrESZWSv336S0uQp95iojkXgtwFulvGr3FEsK37EON6i+SwcBpwELS/116i7PR3P4iIoVyGvmZI76n+BfVXi/+IOBJ0v8deot24JNm1YuIiKkjgBWkv5n0FTcBW1k1QA5tTX4HbHbGcuC9Vg0gIiI+dgbmkP6m0le0EUa+jzdqgzwYS3icvor07d1XzEXrO4iIlMYU8jdrYE8xDzidco0PGAp8jPzN5NdTPAhsZNIKIiKSzBrANaS/ydQTcwjr3Be5IzAYOI58rdrXV9xAWG1SRERKaCDwfdLfbOqNZ4APU6xP0AYBxwPPkr796o3vEFYaFBGRkvsvwud4qW88jXQEjiN0YPKqFXgXMJP07VVvLAbeY9EYIiKSX1sDs0h/E2okngCOJF8dgYGEzxmLdOPvbMsqfX0hIiJdjAKuIP3NqNF4gTCZUMpFaUYR5lp4hvTt0Whci1ZrFBGpvFbgs+T/87SeYhFhTMPk6K3SuymEz/kWR6zDK1YCnyLMFikiIgLATuR7Zrq+oo3whcNe0VvlddsT5iooYkepRhiU+JborSIiIqWwJsV8JdA17iYMchwSoT2GEFYxvCcHdWWJy9EnfiIiUoeTgNdIf+PKEnMJj+q3aaL+bTr+23k5qCNLLCV8PSEiIlK3zQm/plPfxGLEw4SJhcb1Ue9ows3yrznIN0bcBWzWR70iIiK9Gki4ceZ9QaF6YznhcfhBhIlvWoFdgJ9RrHkR+opVwLco1uRJIiKSU9sTfkWnvrnFjKc7InUeMWMGsG0vf0MREZGmDAW+SfiULPWNTvHvsRL4KnEGPoqIiPRoOnAn6W96ihD/ALbr8y8mIiISSSthwNwi0t8AqxpLCeMztIiPiIi425DiLDFcprgCmFjH30dERMTUXsAjpL8xlj2eAPav828iIiLiYhBhcRy9FogfSwiLH2mQn4iI5NZE4FKgnfQ3zqJHO3ARsH5DfwEREZGEdgRuI/1NtKhxB1q8R0RECmwvwgQ1qW+oRYlHgHc11dIiIiI5MxA4HniR9DfYvMZzwDHosz4RESmh4YSBgi+Q/oabl3iZ8D3/sAztKiIiUggjCB2BKj8ReIVw4x+esS1FREQKZyTwGWAu6W/Injf+TxE6QSIiIpXW+UTgWdLfoK3imY4adeMXERHpZhBhBPw9pL9hx4oHgKM6ahMREZE+tAAHUOx5BG4G9u2oRURERBo0DTibMB1u6pt6f7EMuBDY2qQlREREKmg04R36U6S/0XePJwkj+tcyq15ERKTiBgCHANcBq0l3019NWAr5QKDVtGIRERH5N+sTfnnPwu/G/y/gW8CGDvWJiIhIP7YHfgYsJf5NfzlwOWFdAw3qExERyaHRhM/urgFW0fxNvw34K2Hcgd7ti4iIFMhawHGEG3k79d34Hya8VlgvQb4i4kSP8kSqYwpwGLA7MB1Yu+PfvwI8SJhz4ErCiH4RERERERERERERERERERERERERERERERERERERERERERFx8n+kRDFs9yDRiwAAAABJRU5ErkJggg==;" vertex="1" parent="1">
          <mxGeometry x="139" y="77" width="42" height="42" as="geometry" />
        </mxCell>
        <mxCell id="rBa0YoAANimObUDzyaQW-21" value="Pepper" style="text;html=1;align=center;verticalAlign=middle;resizable=0;points=[];autosize=1;strokeColor=none;fillColor=none;" vertex="1" parent="1">
          <mxGeometry x="130" y="120" width="60" height="30" as="geometry" />
        </mxCell>
        <mxCell id="rBa0YoAANimObUDzyaQW-22" value="" style="ellipse;shape=cloud;whiteSpace=wrap;html=1;" vertex="1" parent="1">
          <mxGeometry x="250" y="80" width="50" height="39" as="geometry" />
        </mxCell>
        <mxCell id="rBa0YoAANimObUDzyaQW-23" value="Home Assistant" style="text;html=1;align=center;verticalAlign=middle;resizable=0;points=[];autosize=1;strokeColor=none;fillColor=none;" vertex="1" parent="1">
          <mxGeometry x="225" y="120" width="110" height="30" as="geometry" />
        </mxCell>
        <mxCell id="rBa0YoAANimObUDzyaQW-26" value="" style="whiteSpace=wrap;html=1;shape=mxgraph.basic.document" vertex="1" parent="1">
          <mxGeometry x="384" y="83" width="26" height="30" as="geometry" />
        </mxCell>
        <mxCell id="rBa0YoAANimObUDzyaQW-27" value="data.json" style="text;html=1;align=center;verticalAlign=middle;resizable=0;points=[];autosize=1;strokeColor=none;fillColor=none;" vertex="1" parent="1">
          <mxGeometry x="362" y="119" width="70" height="30" as="geometry" />
        </mxCell>
        <mxCell id="rBa0YoAANimObUDzyaQW-28" value="Joueur" style="shape=umlActor;verticalLabelPosition=bottom;verticalAlign=top;html=1;outlineConnect=0;" vertex="1" parent="1">
          <mxGeometry x="630" y="75" width="20" height="44" as="geometry" />
        </mxCell>
        <mxCell id="rBa0YoAANimObUDzyaQW-29" value="" style="shape=image;verticalLabelPosition=bottom;labelBackgroundColor=default;verticalAlign=top;aspect=fixed;imageAspect=0;image=data:image/png,iVBORw0KGgoAAAANSUhEUgAAAgAAAAIACAYAAAD0eNT6AAAACXBIWXMAADsOAAA7DgHMtqGDAAAAGXRFWHRTb2Z0d2FyZQB3d3cuaW5rc2NhcGUub3Jnm+48GgAAIABJREFUeJzt3XeYXVW5x/HvTHohCSGEkhAgCRBKAGkqUpUiHcR2FVAQ6QhW7GKXq1dFrBcBBQFBRbqgNFGUJkjoJDRDCySkkzpz7h9r5jKOU845e73v2uX3eZ73wYdH9n7fNbuss/faa4GIiIiIiIiIiIiIiIiIiIiIiIiIiIiIiIiIiIiIiIiI5EVL6gRE6tQCbAFsDmzSEVOBtYDhwGhgJDAoVYJSCauAJcBC4DVgHjATmNXxz0eAR4FaqgRF6qUOgOTZtsBbgd2AXQg3e5G8mwf8FfgzcDMwI206Ij1TB0DyZiPgPcAHgWlJMxGJ42ngcuAXwGNpUxERyZcBwDuBvxEenSoUZY07gMOBVkREKmwocCrwJOkvzAqFZ8wCTgaGICJSMQehG79C8S/gKPQ6VkQq4A3AX0h/4VUo8hR/BrZBxNGA1AlIZQwAPgVcDGycOBeRvNkQOJZwnnR2kEVM6bGTeNgY+CWwa+pERArgTsJrgZmpE5FyUwdArO0LXEaYqEdE6rMYeD9wTepEpLz0CkAsHUd45D88dSIiBTMEeDewgvDpoEh06gCIhVbgR8CX0ffOIs1qBfYCxgM3oHEBEpk6ABJbC/AT4ITUiYiUxI7AJMLrAHUCJBp1ACSmFuDH6OYvEtsbgA2Aa1EnQCJRB0Bi0i9/ETtvICyI9YfUiUg5qAMgsZwOfD51EiIltxMwF7gndSJSfPoMUGLYB7gOGJg6EZEKaCNMpa0nAZKJOgCS1VTgXvSdv4in+cD2hKWGRZqiT7Qki1bgfHTzF/G2JnAReo0rGejgkSw+CxydOgmRipoELAH+ljoRKSa9ApBmbQPcDQxOnYhIha0gvAp4OHUiUjx6BSDNOgfd/EVSGwL8MHUSUkzqAEgz3oFW9hPJiz0IXwWINESvAKRRgwiPGzdJnYiI/L/HgenAqtSJSHHou21p1IdIf/NvJ4w/uAX4B+Hi9wJhQJQugGJpEDASWB+YRnj//lbCfP0pn6huBnwQODdhDiJSYq2Em20tUcwGPg1MsC5UpEETgc8Az5Hu/HgUPdUVESMHk+bCNpewxoAGHUreDQFOAuaR5lw5wL5EEami2/C/oF1KWABFpEjGAZfhf77c7FGciFTLJvheyFahlQWl+E4mHMte5007MNmlMhGpjM/hdxF7DTjQpywRcwcRjmmv8+fTPmWJSFU8iM/FazVwmFNNIl4OxO9JwH1ONYlIBUzD79eLHvtLWZ2C33m0qVNNIlJyH8HnonWpV0EiifwGn3PpZK+CRKTcPC5a8wgjp0XKbC3CZ63qTItIIbyI/QVLj/6lKjxeBTznVo2IlNZU7C9Ws9EkP1IdQ4DnsT+vNvYqSIpJqwFKf7Zy2MePgJUO+xHJgxWEY97adId9SIGpAyD9mWq8/XbgYuN9iOTNL4E2431Yn7tScOoASH+mGG//bsIrAJEqeZ6wkqUl63NXCk4dAOmP9UVEc5dLVd1qvH09AZA+DUydgGQyANi2IzYlrAk+GRgBrNnxz7wPrtOsZVJV9xpvfx/CYMAsVgJLgfkd/3wSeIKwLPgDwD+xf5UhIh0mECbmuQpYgP1IYuvYMm7ziBTGdNKff1ljPnAlcCqwftzmERGAocD7gRsJc+WnPuljxtiI7SRSJONIf/7FjNXAHwjXqiER20mkkkYApxEm9Uh9cltF3l9RiFgZQvrzzyrmAGcCo2I1lkhVDAQ+is+UoalDpMpSn3/W8QrhR4zGm4nUYQfgHtKfuOoAiNhLff55xQPAWyK1mUjpDAbOJkyMk/pkVQdAxEfq888z2oHvotd+Iv9mEvB30p+g6gCI+Ep9/qWIewmfK4tU3p6ET2lSn5TqAIj4S33+pYpXgd0itJ9IYR0CvEb6k1EdAJE0Up9/KWM58M7sTShSPEdTvm/61QEQaUzq8y91rAY+mLURRYrkYGAV6U++PIRIlaU+//IQq9GTAKmIPYBlpD/p8hIiVZb6/MtLrAD2ytiW0qCW1AlUzGTCEqBjUieSIzoGpcrUCX7dfGA74JnEeVSGlgP2Mwi4GN38RUR6siZwOZonwI06AH6+A7wpdRIiIjm2I/DN1ElUhR6/+ngL8BfU3j1Rm0iV6RXAf2oHdiFMjiaGdPG1N5Aw89U2qRPJKR2DUmXqAPTsQcJ4gNWpEykzvQKwdyq6+YuINGI6cGLqJMpOv75sjQCeBtZOnUiO6RiUKtMTgN7NBTYGlqROpKz0BMDWiejmLyLSjHHAsamTKDP9+rIzBHgKWD91IjmnY1CqTE8A+vYiYf6U5akTKSM9AbDzLnTzFxHJYj3g0NRJlJU6AHaOTJ2AiEgJ6FpqRI9fbUwAngUGOO93NnAVcB1hOs3ZwNKM27R+RKljUKos7+fXCGADwmC8AwhLmE/MmlSDVnfk8JLzfkWachq+C2k8RxgsY9Hh0GJAInaKdn4NBD4MPO+Qe9c42aAWERNX4XdiXAWsYVhL0S5QIkVS1PNrDeBqh/w74wrDWkSiGUBY1crjpPgB9uM4inqBEimCIp9frcA5DjXUgHlozJoUwA74nBBX4XNCFPkCJZJ3RT+/WvF7ErCdQz2Voh5VfFs77ON54AjCohkiIqm0E65FLzrsy+PaWinqAMQ3zWEfXwIWO+xHRKQ/i4AzHfazmcM+RDK5EtvHYP/C9/PCoj+iFMmzspxfAwlfI1nWooGAkekJQHwbG2//KqDNeB8iIo1YTbg2WbK+tlbOwNQJlNAo4+1fb7x9adxAYCNgE2AqsCYwvOOfEL4Kea3jnzOBWYSJmrTWeaD2K4frgZMMtz/acNuVpA5AfNYdgFnG25f+DQV2B3br+OeOwOAGt7ECuAe4vSNu6/h3VaD2Kyfra5PlfCciUazA9j3YSL9SIHLuRR4D0ArsDZwPLCB+O8zv2PbelPPVnNqvZ2U6v0ZGzr17aEVAyb0yndBEyDdv9TRqCHAU8Cj2bdEZTxKmkx7mUJ81tV/fynZ+la0ekYaU7QQoWz31Ggh8BJiD342re7wEnEIxX9Wp/epTtvOrbPWINKRsJ0DZ6qnH7sADpLtxdY9HgX1MK45L7Ve/sp1fZatHpCFlOwHKVk9fhgE/Jf0Nq7f4Cfl+rK32a1zZzq+y1SPSkLKdAGWrpzfTyNev1t7iEWC6URtkofZrTtnOr7LVI9KQsp0AZaunJwcBS0l/c6o3lgAHmrREc9R+zSvb+VW2ekQaUrYToGz1dHcUsJL0N6VGYzXwYYP2aJTaL5uynV9lq0ekIWU7AcpWT1enE1YzS30zajbaO2pIRe2XXdnOr7LVI9KQsp0AZaun09sJvwJT34SyRhvhEbw3tV8cZTu/ylZPqbWkTqCErA9S779Z2eoB2AB4mPJMLboI2JKwGpsHtV88ZTu/ylZPqRVpykyRWL5IeW5eENaf+KLj/tR+IiWg3lR8ZesBl62eSYSpYvM8O1wzVgNTgH8Z70ftF1fZzq+y1VNqegIgVXMo5bt5QajpYIf9qP1ESkIdAKma/VInYMijNrWfSEmoAyBVs0nqBAx51Kb2EykJdQCkatZNnYCh9Rz2ofYTKQl1AKRqyvwtsUdtaj+RklAHQKrmpdQJGHrRYR9qP5GSUAdAqmZm6gQMedSm9hMpCXUApGquT52AIY/a1H4iJaFJFeIr20QYZatnA+Apyvct+2pgMjDbeD9qv7jKdn6VrZ5SK9tJLNKf2cAF2C0Fuwy4FbgPeLnj360DbAfsAQwz2u95+Ny81H4iIr0o22pYZasHYCKwsIEc64nngROB4X3sdzhwEvBC5H0vACZkaI9Gqf3iKdv5VbZ6RBpSthOgbPV0OpCwFGyMGi6m7xtXdyOASyPtuw04oOHqs1P7xVG286ts9Yg0pGwnQNnq6epUst3E2oBP09x7yZaO/zbr/k9pYt+xqP2yK9v5VbZ6RBpSthOgbPV0tx8wn8bzXgQcUoL9Z5U6/9T7z6ps51fZ6hFpSNlOgLLV05MJwNnACvrPdxVwIbBRifafVer8U+8/i7KdX2Wrp9T0SUV81gepPuuxMwk4CNgfmMrrA8OeB2YRvhO/GrvR4qn3n1Xq/FPvvxllO7/KVk+pqTHjK9sJULZ6RPKkbOdX2eopNc0EKCIiUkHqAIiIiFSQOgAiIiIVpA5AfCuNt7+G8fZFRJoxynj7K4y3XznqAMS3xHj76xlvX0SkGdbTKS823n7lqAMQ3yLj7U8x3r6ISDMmG29fHYDI1AGIz7oDkHLechGR3lhfmxYab79y1AGI72nj7R+ClnEWkXwZCBxsvA/ra2vlqAMQ3+PG258IHG28DxGRRhyL/RiAx4y3XznqAMRn3QEAOBN9DSAi+TAa+JLDfp5w2EelqAMQ3wMO+1ifsIa6/n4iklIr4Vq0rsO+PK6tIpkMoLnlSZuJc7DvBGh1LxE7RT6/WoEfOtRQA+ahHzxSEFfic1LUgGuwnYCjyBcokbwr6vk1GrjWIf/O+J1hLZWlHpWNmx33dSBhcMxx6OsAEbE1EDiecM3x/CT5Jsd9VYaWVrSxPvAvwusAT88T1ju/lvDJzGyyz0xo/Stdx6BUWd7Pr5HABoRJfg4gfOpnPdq/u9WEr5/mOO9XpGk34Pd4rMghUmWpz78ixLVNt670Sa8A7FyUOgERkRLQtdSIHr/aGQI8if/jsqLRMShVpqdgfXuR8PpheepEykhPAOysAL6bOgkRkQI7C938zejXl60RhMF4a6dOJMd0DEqV6QlA7+YQfv2/ljqRstITAFtLga+nTkJEpIC+im7+pvTry94A4F5g29SJ5JSOQakyPQHo2X3ATkBb6kTKTE8A7LURJs5oT52IiEgBtAMno5u/OXUAfNwNnJ06CRGRAvgf4M7USVSBHr/6GQT8GXhz6kRyRsegVJleAfy7u4FdgZWpE6kCXXx9bUR4t7Vm4jzyRMegVJk6AK+bB2xHmEZdHOgVgK9nCPNpa2SriMjrlgGHoZu/VMBBwCrSz7GdhxCpstTnXx5iNfCOrA0pUiQfJBz4qU++1CFSZanPv9SxCvhA5lYUKaCDCa8DUp+E6gCIpJH6/EsZy4F3Zm9CkeLaDXiV9CejOgAi/lKff6liLrBLhPYTKbwNgDtIf1KqAyDiK/X5lyLuBjaO0XgiZTGIMAFGG+lPUHUARHykPv88ow34b8K1TkR6sD1wF+lPVnUAROylPv+84n40CZpIXQYApwIvk/7EVQdAxE7q88865hDm9R8Qq8FEqmIIcBwwm/QnslUMjtZaIsUyhPTnn1W8BJwBDI/WWiIVNQT4L+B6yjd3wNiI7SRSJONIf/7FjFXAdcB7CdcsEYlsXcIjtSsIc2enPumzxpZxm0ekMKaT/vzLGvOA3wEnAuvEbR6xpoVYiq0V2AbYFtgU2Izwec0oYAwwkvw/Yj+c0JkRqZp3Ar9JnUQ/VgJLgAXAQuBp4AngceCfwAygPVl2ImLqj9j+gvi6XykiuXIWtufWjX6lSBFpNUDpzyzj7b/NePsiefVW4+1bn7tScOoASH+eMt7+joSZEEWqZBKwnfE+1AGQPqkDIP2xvoi0AkcY70Mkb47E/vqrDoCIZDIV+5HEz6HPhqQ6hgIvYH9eab59EcnM42J1kls1Iml9BPvzabZbNSJSapdjf8GaB6ztVZBIIuPxWf77Eq+CpLg0BkDq8VeHfYwFfuiwH5GUfgKs6bCfOxz2ISIVMA37XyydcbJTTSLeTsPvPNrEqSYRqYAH8LlwrQbe4VSTiJeDCHPle5xD/3CqSUQq4rP4/Xp5jXDBFCmDQ4Bl+J0/Z/iUJSJV4fE5YNdYBZziUpmIndPwXcGzHX3+JyIGbsW3E1AjLJYy3qM4kYjWIayS532+/MmjOBGpnoPwv6DVCJ9NnYImC5L8G0r4zn8+ac6V/e1LFJEqaiUsA5riwlYDnieMRdDaAZI3k4DP4TNpVm/xCFriXRqgg0UadTzw08Q5tAP3ArcQRjw/TugcLCGsXy5iZTAwEpgIbArsQFjVb3vSz6vyYeDniXOQAlEHQBo1CHiIcPETkXx4DNiaMHhWpC6pe6xSPKvQZ0YiefMJdPOXBukJgDTrJuBtqZMQEW5B56I0QR0AadbWwN1oZL5ISsuB7YBHUycixTMgdQJSWHMIjxz3Sp2ISIV9CrgmdRJSTHoCIFm0Eh4/7p46EZEK+ivh3GtPnYgUkzoAktUUwid5Y1InIlIhrxI+PXwmcR5SYPoKQLJ6Eng3Yb5zEbG3mnDOPZM4Dyk4jQGQGJ4CFgL7pU5EpAJOAS5PnYQUnzoAEstdhEV7dkydiEiJ/QD4auokpBzUAZCY/oA6ASJWziP8+q+lTkTKQR0Aie16wlKoO6RORKREzgeOQyP+JSJ1AMTCH4BxwE6pExEpgR8CJ6Gbv0SmDoBYqBGeBLwIvB0dZyLNaCMsf/059NhfDGgeALH2duDXwOjUiYgUyALgPcAfUyci5aV5AMTaDcC2wO2pExEpiL8TBtLq5i+m9GhWPCwALgTmA29Fx51IT1YBXwM+CMxLm4qISHzbALcR3mkqFIoQtwDTERGpgIOAWaS/8CoUKWMm8C5ERCpmCHAi4SKY+kKsUHjG48DxwGBERCqsFTiMsLxp6guzQmEZfwEORQOwJQf0GaDkzYaEC+RRwHaJcxGJ4RHgN8ClhF/+IrmgDoDk2ZbAXsBuwK7A2mnTEanLK4TPXm8HbiJ0AERyRx0AKYoWYBqwBTAV2KQjxgIjgDHASGBQqgSlElYBSwifti4lfK43izCOZSbhZv844XG/iIiIiIiIiIiIiIiIiIiIiIiIiIiIiIiIiIiIiIiIiIiIiIiIiIiIiIiIiIiIiIiIiIiIiIiIiIiIiIiIiIiIiIiIiIiIiIiIiIiIiIiIiIgk0JI6AXExGti0S0wAxnWJkcDwbv/N4i6xBFgXmASM8klZRJqwCJgNvEQ4r9foiJHd/n8rgYXA3C7xHDATeKIjFvikLKmoA1A+awA7AG8C3gjsBKyXNCMRKaIXgXuAu4A7O/734qQZSVTqAJTDZOAg4EBgN2Bw2nREpITagH8C1wLXAPcBtaQZSSbqABTXtsARwHuAiYlzEZHqeR64DPgVcH/iXKQJ6gAUyzjgGOBIYKvEuYiIdHoYuAg4H3glcS5SJ3UAimFT4GTgWP5zsJ6ISF6sAC4HvgPMSJyL9EMdgHx7E3AmsA/6W4lIcdSAPxGuX39Pm4r0RjeVfNoK+CLwTvQ3EpFiuwn4DHBv6kTk3+nmki8TgG8D70V/GxEpjxrwa+ATwAuJc5EOA1InIAAMBE4Ffkv4hl83fxEpkxZgOnAC4TPlvxE+K5SEdKNJb0fCyFmN6heRqngYOJowuZAkoicA6QwEPkn4dEYz9YlIlYwndABGAH8G2tOmU016ApDGJoQb/xtTJyIiktidhLlNZqVOpGrUAfC3P3AxMCZ1IiIiObEYOAq4MnUiVaJXAH5agDOA84BhiXMREcmTIYRpzYcBt6A1BlzoCYCPYYRf/YelTkREJOeuIKxzsix1ImWnDoC9McDVwK6pExERKYi7gAOAeakTKTN1AGytC/yBsHKfiIjU72FgX8Kqg2JAHQA7k4DbgI0T5yEiUlRPAXsAsxPnUUrqANgYT/i2dVrqRERECm4WsBvwYupEyqY1dQIlNI4wilU3fxGR7KYCNwJrpU6kbPQEIK4RhMf+OyTOQ0SkbO4B9gSWpk6kLPQEIJ4Wwpz+uvmLiMS3I3Ahum9Fo4mA4vk6YaUrERGxsTmhA3Br6kREOv0XYTGLWsWjHZicsS1FpGeT0XWm8zrznoxtKRLFpoR5rFOfFL3FA8A3gBkO+7otW1OKSD9uw/48ngF8E3jQYV/NxmLComoiyQwmDExJfTJ0j8eAjxPmIoAwFfFSh/0enaEtRaR/R2N/Hi/h9fVKNiIsW/64w34bjXsI12CRJM4i/UnQGauBS4Hd+c+vOw5y2P8yYFRTrSgi9RpFONesz+cDu+23hTAC/3KgzWH/9cZZTbWiSEa7ko8ToQ24hL7nHTjXIY/fNNJ4ItK032J/Pv9vH/vfAriM/Fz/dmuk8USyGkyYpzr1wX8rsGU/ubYSZtCyzuUd9TaeiGRyOPbn8wv0/7nd1oQZT1NfBx9GrwLE0WdJe8C/ChxHfRM57eyQz0JgaF0tJyJZDQUWYH9ev7GOXFqAo4CXHfLpKz5TV8uJZDQZnwF1vcW1wNoN5PsNh5zObyAfEcnuF9if119rIJ+1gesdcuotlqKF18RBqoN8FXAGjU/ffK9Dbns3mJOIZLMv9uf1XQ3m1AJ8jjAgOcU18roG8xVpyDtJc2DPo7mBLmOxH6jzKjCwidxEpHmDsH8NsBpYs4nc3grMN86ttzi8iXxF+jUCeA7/A/o5+h/o1xuPwUKXNJmbiGTza+zP78OazG1rwkBC7+vlbGB4kzlXjhZVqN8ngAnO+3wC2IUwyrUZb4uYS2+ucdiHiPwnj3Ov2WvIDOAtwKyIudRjImESNJFo1ifMjuX9y79zJr9mPWGc40pgTMYcRaQ5YwljgyzP8Ucz5jgBeNY4x+6xGFgvY94i/+98fA/guYRVr7KY5JDnzRlzFJFsbsP+PJ+YMcctCOOYPK+hP8+YswgA2+A749Uywrf7WR3hkOtHI+QpIs37OPbn+fsi5LkLsNwh185YTRiHIJLJn/DtuZ4cKe8fOeSa9SmFiGSzJfbn+TmRcj3VIdeu8cdIeUtFHYDvAXsNjX/n35v7jXN9IWKuItKcFuAlbM/1eyLme4Vxrt1jv4i5S4UMxHe+/2dp7pvbnozAfnCQPv8TyYfLsD3XV/L68sBZrYnvoMCH0DwlvdJngL37MGHwipdTCJNnxLAj9gf9rcbbF5H6WJ+Lg4DtI21rPuFa52VL4EOO+5MSGIHPCnqdcUXk/D0WK5oSOWcRac407M/3T0bO+UqHnDvjBTQ5UI/0aKRnHwHWddrXEuC0yNusZxWvLGYDTxrvw8p4YFdgK8KFc1PCY8kxwEjCrx0pr1WEc24B4dfo48BjhNd9twOvpEutaY8RfrBYfvv+psjb+whhkqGRkbfbk/UIAxDPctiXFNyahPntvXqnHzOowfod20UGOVvaAfgu8CDQjt/fVlGsaCfMYPc/wHYUi/W0wBYd/k8Y59w15qFJy6QOX8fvoPwn8Z/CjMH+JveRyDlbWIPQufIcyKkoVzxEmOvC41dqVh/Dti3aCedUTIMIHS6vv2cjyxtLBa0NLMLvgLSYq383h7xjPw6MaU3gTPxnHlOUN+YCXyTfvyB3xb4dYkxQ1t2eDnl3xhJgHYMapCTOwe9gvNKohlOM8475SVBMLcBRwBzS3CQU5Y95wHHkc/6L4dh/+nuCUe7XGufdNb5vVIMU3Ib4TVW5CrtPDP/XOPf7jPLOYgrwF9LeHBTViT8DG5M/1o/Tf2yU9zTCDwuPv90K8vm3S0LzALzuTGCI075+AjxitG3r+a/vNd5+ow4lzFS2S+pEpDJ2I4zfeXfqRLqJOWNfT6yuLY/ht3jPYOBzTvuSgticsHiERw90ATDOsJaFxvkfb5h7I1qAb5P+16CiutEOfJP8vBI4Edt6Y01U1pPx2F+7OmMVsJlhLVIwv8XvohF7Qo2uxjvkbzEQqFEDgfNId+FXKLrGReRj/giPgYBjDfP/tEP+nXGZYR1SINvj923408BQw1re7FBDrPUKmjUIuJo0F3qFore4ivQTq43Dvs6dDPMfBjzjUEONcM1/g2EtUhDX4HeRiLGudl+ONM7/ReP8+9MCXEC6i7xC0Vf8ivSvA17GtsaiX8O6htWXWFIQ2+H3638G9oMuv2xcwy3G+fdH7/wVeY9vktbt2Nb3BeP8WwkDLL3+Xjsa15NrVf8K4Mv49dg/S+hsWLJeoOdR4+335Z2EqUNF8uwM4LCE+7c+R62vMe2EL7K86IuAivJ893+HU01/N67DcxnPrqYQvp5I+ctOoag35pPuW/PT68yx2fiLQw0twJ3GdXRGO8Vb9yGaKj8B+BJ+v/69epkTjbc/y3j7PWkBfgGMTrBvkWaMAc4nzXgA63PU+hoD4cbsdc1sIUzzLBXi+e7/BqeaWrGfCtRq9sK+HJMhX4UiZRyBv20y5FtPLMevY3OTcS1do9JjAarG6zOydmw/m+lqHYd6RjnV0mlN7Ec1KxRW8RL+T67GRsq9r7CcC6CrHfD7oVbJLwKq+ApgO+BAp339DrjbaV/rGW9/IWGlRE+nEVZoFCmidfAfN/MqYdU7S+sbb7/TvYT5FTwcgp4CVILXr//VhCmGvexvVEdnPORXCgAjgFci5a5QpIq5wEh8PRop995ib79S2BK/ador9xSgak8Atsfv1/+F+H42t67x9p8z3n53x2O7ZoKIh7WAY533Odt4+15PAAAeBi5x2tfBVOyLgKp1AL6EzwCWVcDXHPbT1Xjj7Xt3AI523p+IFe8OwPPG27e+1nT3FcJTAGuV+yKgSh0Az3f/FwJPOe2r0xjj7c8z3n5XOwBbOe5PxNKWwLaO+7M+V70HNs4CLnbaV6XGAlSpA/AF/H79f91hP91Zj9BfYLz9rqznGxfx5nlMWy7bC2nm5PgaPk8BAD7jtJ/kqtIB2JzwfsfDLwmr/nmzXqXvVePtd+U5yEjEg+cxbd0B8P4cGMJTgF857etQ9ASyVH6FzyjSlcBkp5q6u77OHJuNdznVMR6/b39rwIOEzw23JHx5IOU2gvC3Po3wt/c6ztrwG9T6XuNaUo2Wn4L9ZGedcaFTTWJsMn4Hzf861dSTO/rIK0bs5VTH4cZ1dMYK4CSq8xRM/tMAwnf6K/A55rwWCdrXuI5bneroyfl95BUzVgNTnWpKpgoXvzOAgQ77WQV8w2E/vVnDePteYwA8Hr2tBPYDfoz9Co2SX23ADwlzaKx02J/XY+UyjgHo9DXCtdbaAODjDvsRQ+sBy/DpMab89Q8wE9tmzCILAAAgAElEQVT6vCY1usS4jhrhl79IV6dif9x5vcPeyriOR5zq6M152NbXGcvxnfNAIvsuPgfKStIt/9npaWxr9Hocdq9xHQ8SevciXQ0gzHZpeex5TQu+mXEdM53q6M2G+L22+bZTTUmU+RXAWsCHnfZ1AWlG/ndl/ZrD47Eb2A+UOpfw6FekqzbCL0tLXoMArV9nDDLefn+eBS5y2teJlHhG0jJ3AE7HZw7uVcA3HfbTH+sOgNc3uNZ/s5uMty/F9Sfj7VuP0+lU9g4AhLlWPH6UjMB/QSfJaBThu3WPR0TWvxrqNRfbOr1W5bN+tOe9MIsUxxrYHnvLneoYb1zHy0519OcCfK7x8/DrvEkEn8bnwFgNbOpUU38WYlur9VTDnaz/ZiJ9KcPxt6ZxDZ6TgvVlKn4rBX7SqSbJaBjwEj4HhdcqVfVYjG2tXj3gMlyApbjKcPxZP8lY5FRHPX6Nz7X+RWCoU01uyjgG4FhgHYf91MjHu/9O1u/DPOZSEJHsrN/Re8yZUK9v4tOxWhc4xmE/ksEgwghRjx5hqukwe/MitvV6dKowrsHrF5gUVxmOv3WMa3jBqY56XY3PNf9p8jEAMpqyPQF4HzDJaV8pVvzri54AiAjAYOPtrzDefqO8rsUbAe922peLsnUAPuq0nxuBe5z2Va8qfPojIv2z7gDk6RUAwF3AzU77+hQ+y8q7KFMHYD9gG6d95e3XP6gDICJBlcYAdPK6Jm+N38Jo5srUAfD6TOPvwF+c9tUI68dy1r8qRCQO6w5A3l4BQFih8A6nfZXmk8CydAC2B/Z02teXnfbTKD0BEBGo3iuATl5fZe0NvMFpX6bK0gHw6pHdD/zRaV+NUgdARKCarwAArgP+4bSvUiwVXIYOwEbA4U77+gr5/ZRMHQARgep9BdDVt5z28x7CqoSFVoYOwMfw+UTtMcL3pnmlDoCIQHWfAABcATzqsJ+BwGkO+zFV9A7AWOBop339N9DutK9mWJ+Uw4y3LyJxWE9Zm+cOQDvwPad9HYvfGikmit4BOBGf1d2eBy522E8W1iflaOPti0gc1udqnjsAABcS1oOxtgZwgsN+zBS5AzAEONlpX98n/wf9UuPtjzLevojEYd0BWGK8/axWAGc77et0CrxIUJE7AEcB6znsZxFwrsN+srJeoUtPAESKwfpcXWi8/Rh+jE+e6xCmoC+konYAWvCb9tfrQMrKOkd1AESKwfpczdNywL3x/OH2KQp6Ly1k0sDBwOYO+1kBnOOwnxj0BEBEQE8AOnm9ut0M2N9hP9EVtQPwCaf9/Ir8LX3ZGz0BEBGwH69ThCcAEAZvX+K0r0JOD1zEDsD2wC4O+6kB33XYTyzWJ6UGAYoUg54AvO4sfD7f3g3Y0WE/URWxA3C6036uBh5x2lcMegKQ3gTCp6nXEyYjWUz4OmMmcBNh+tApybJTflWhJwCve4wwRbCHU5z2U1nrEd7L1xxiZ6eaYtkJ2/bwmmPb+u9qYRxhCtJ6js124HJgqlEuyi+bIh5/3T1gXEPRFsLZBfu/a41w/K7rVFMlfRWfP+TtXgVFNBnbNpnlVEfRLsD7AvObyGMZcKRBPsovm6Idfz15xriGiU51xHQH9n/bGnCmUz2VM4Qwu5PHH/Egp5piWgPbNnnFqY4iXYCPBVZnzOfMyDkpv2yKdPz1ppkOVSNRxIlvDsX+b1sD5lDM9sm9o/H5Az5CmGegiJZh1y6r8Vl0qSgX4L2AVZFyOjZiXsovm6Icf70ZBLQZ5p/3WQB700oYD2D9960BH3CqqVL+ic8f7zivggzMxrZtJjjUUIQL8DhgXsSclgPTIuWm/LIpwvHXlw2N83/KoQYrJ2L/960B93kVVBV74vOHmweMcKrJwn3Yto/HZy5FuAB/zyCv30fKTfllU4Tjry9vNs7/bocarAwH5mL/N64RPguUSK7E54/2Va+CjNyIbfsc4lBD3i/AaxF+cVrkNl35Jc8v78dffw43zt/rkzor38D+b1wDfudVUBZFmAdgMnCgw35WAj9x2I+lOcbb91h8Ke8OJAxItfCOCNtQftVm/RnaXOPtW/sRYeyJtUOAjRz2k0kROgCnAgMc9vNrijPtb2+s81/fePtFsJ/htmPMJ678qs16nM5zxtu39jxhHglrAyjAxEB57wCsQRj97+H7Tvux9Lzx9tUBsJ0gJ8Ysd8qv2qzPUetrjAevKd4/BIx02ldT8t4BOBqfKWhvA+532I81dQDsWb4GGUv2b4iVX7VZn6NFfwIAYbD0Xxz2M4acfxKY5w5AC3CS076+57Qfa9YnpzoAPguLZKH8qk1PAOrjdc0/jRzfZ3ObGGGw0GYO+5kJXOuwHw96AmDvRcNtzyOMkM9C+VWbngDU5yrgSYf9bEKY7jqX8twB8BpAcQ7l+VXyEmEWMCvjgMGG2y8Cy4tGjElWlF91DSU8drayCr8pwa21E679Hj7itJ+G5bUDMIUwVai1BcAFDvvx0kboBFhpQZ8CWn4HHeNJlPKrrgnYTmP+AuX5sQRwPuEeYG1fwpOA3MlrB+AEfHI7l+LObd2b2cbb95gOOM+ux+Yxc404s9kpv+rS4//GLAbOc9hPCzbraZTSEOBl7GdqWgVMcqrJ0yXYttv7jfMvwkxs3zbI67eRclN+2RTh+OvNB4xz/6Vx/ilsSLxFqfqKV9AXKnU5Cvs/Rg24zKsgZ1/Ftt2+ZJx/ES7AaxJO6Fg5LSfugFfl17wiHH+9+Ypx7mca55/Kb7D/u9eAI7wKKrK/4fPH2NWrIGfWyyZb/wooygV4V2BFpJw+FDEv5ZdNUY6/nlxsnPuRxvmnsgf2f/cacIdTPYW1NT5/iIe8Ckpgd2zb7q/G+RfpAnwU2R8ffilyTsovmyIdf93daZz7W4zzT+kB7P/2NeANXgUV0U/x+SMc51VQAhtg23aW33FjnLvFBXhPmlti9DXsx1Mov8YV7fjrKuZrlZ6izF8AnYD9375G8RecMzMKWIT9H2A+MMKpphRagWXYtV87tu1XxAvwWOBb1Nfu7YTFSCYb5aL8sini8QdhynTLvJdi+4lhaiMJnwRa//0XEe510s1J2Dd+jfJM+9uXR7FtQ8vHWEW9AAOsA3yYMMvYI8BCwoXzceBG4KPAxsY59EX59a+ox99Oxnk/aJh7XpyNzz3oRK+CimQG9g3fDmzqVVBC12LbjpaPhot6AZZyKOrxZ/311FWGuefFZoR7hPUxMMOroP7kZSKgXYDpDvv5I/CEw35Se9R4+5sbb19EGrOF8fYfMd5+HjwO3OSwn+mEe15yeekAeD0S+ZHTflJTB0CkWqzPSetrSl543SP0GqDDOGwHrXXGM8AAn5KSexO2bWl5MSjqI1gph6Ief08Y572DYe550kpYVMr6OFgBjHeqqVd5eALwIXymSPwxtivl5ckj2F5sphKmbBaR9IZgOziyBjxmuP08aQd+5rCfwYRJ2yqtlbA8qHVvaxnhSUOVzMa2Tbcyyruov8CkHIp4/FlPoPaMUd555fVU+ikS/whP/QRgL3y+N76UMNlIlVi/s9vWePsiUh/r2eUeNt5+3szFZ62YjfFZ9r5XqTsAFnOM9+THTvvJE+tRu9sYb19E6mPdGa/CFwDd/cBpP8c47adHKTsAawGHOOznbuBeh/3kjfVJqzmtRfLBugNQlS8AurqPcO+wdijhXphEyg7A+/EZSOYxoCOPrGfu0isAkfRasH8aV+bF0/rice8Ygs+aG7lzP/aDLBZQ7nn/+zKc7Cut9RcbGORdxEFYUh5FO/42Ns53FT5faeXRcMLaMdbHRLKZAVM9AdgBn1+QvyLMJV5FrxFmtrKkpwAiaXkMAFxuvI+8eg24xGE/04HtHPbzH1J1ALwGPvyv037y6j7j7W9vvH0R6Zv1jeN+4+3nndc9xGtA/L9J0QEYBrzXYT93kqNFFxKx7gC8yXj7ItK3Nxtv3/oakncP4DMY8P2Ee6OrFB2Aw4E1HfZT1cF/Xf3DePtvJP2npCJV1Yr9FL1V7wCAz1OA0YQvAkrvFuwHVSwgDOCoupGE6Y8t23pa5JyLNghLyqVIx99041zbCNeQqhsBLMT+2PiTV0GdvH+9bQzs7rCfiwgDOKpuCTDTeB96DSCShvW59zjhGlJ1S4GLHfbzNmCKw37+n3cH4BinfZ7nsI+isH6E90bj7YtIz6zPPT3+f91PHfbRAhzpsJ8kBmC/QE0N+JtXQQWwOTAH2/aOPUq4SI9gpXyKdPw9aJzri8BmkXMusruwPz6epaTjqvbDvvFqwLFeBeXcVOB57Nt7NWEASyxFugBL+RTl+BuL/fieGuFHm8eCbUVwPD73sH28CvJ0KfYNtwQY5VVQjm0API3PwVoDDoiY+wrjXNeImKuUyyhsj72YE+ocZpxr1/gXsFHE3ItqNGE8gHV7X+RVkNejhhHAQQ77+S2wyGE/eTYBuBXfE3b3iNtaHHFbPbGYvljKYZLx9mMe2zHPuf5sQBihvr7jPvNoIfB7h/0chtPXF14dgMPxmZP/Aod95Nl44I84jyQF9oi4LetRx6V8vCZR7Gu8/aJ2ACC8UrwVWNd5v3njcY8ZARzssB83N2L/2OQpwijKqhqH/aCg3iLmOIB7jXN9iDAgVaSrAYR57y2PvVgzynm9/+8pZpBw+docaAGexL6dr/MoxuMJwHjgrQ77OZ/QcFU0GvgDsFWi/Q8Ado60rScibac3WwInGu9DiucUYAvjfcQ6tncl3Ujx6cBN+Mzmmkc1fN7R7wOs47Afc6dj31tqo7rvdkcR1j1I8Wuga/x3pHq+6JDrCsKkGyIAewErsT/uPh8p3+855Npf3EF1ZwncCJ8nMKc61WPqHuwb6ka3avJlBHA76S8GNcKiGTEc7pTvCsIJptcB1TUQOA2fm3+NMLgrhkec8u0vbqW6U67fhH373ulWjZHN8DkQPVYXzJvh+KyrUG+0E75AyGrtjm155f0Q8FHC65Oq/qKpkpGEv/XHsH/n3zXaiPPufJJjzvXEn0iwil0OvA+f9p3qVZCFr2DfQAup3gE4DJ8eaKNxTKT6ZuSgFoUiZsSaVtdrMppG4o9U8xq8APu2/ZJlEdYDSTx+mf8GWOawn7wYBlxNPt9hx/qMyn1VLBFjsY5p608Vm7E3cBXV6gQsA6502M8RFPTrtjfj0/vcw6mePBgCXEv6Hn9v8SrhvWpW2+egFoUiZmxNdgPx+dXZbNwIDI1QZ1HshU+77uhVUEw/xL5hSrtwQg8Gk++bf2fE+hxQrwEUZYkHiWO3HNTSX9xAdToBrfgscPd9ywIsDATebbTtri4hDBgru6GER2wx59y3sn+k7VwQaTsiqf080nb2i7QdS/sSpmQfkjoRB+2ENW6svZeCfa30Nnx6m6kmvvE0mPDOP3XPvt54OFLdI4BXclCPQpEl5hLv65LHclBPvfEHqvEkYEt82nN3i+StngAcbrTdru4jfMJVZoMJgxw9FlKKZQvirCG+FDgnwnZEUvof4qxvsSVxzisvbweuoPxPAh4mvK605nFPjaIVeAH7HtFHvQpKJO8D/vqKMyK1wRhgTg7qUSiaiReIt/z053JQTzNxNeXvBHwS+3Z8joKMd9sV+8ZYDaznVVACwwiDaVKfvM3G3yO2xQdyUI9C0Uz8F/FYL5JlGddT7tcBE/CZGvjNXgVlcTb2DXGzWzX+hhO+GU590maJdmBipPZoAf6cg5oUikYi5jVqQ3xnx7SI2yj3TJse16jvxE469iOFFuDQyNvsyWUO+0hhBHAN4fvSImsh3nrWNeBIwhwDIkUwH/hQxO0dRkEng+lid8KTgFivRPLG4550ODk/Dt6IfS9oFWG++LIZTVhhK3VPPVbcErd5OJDi/wpSlD/aif8j6C85qCtW3E45OwHrEF5NW7ff9l4FNePb2DfADW7V+BlDPpb0jRltxHsN0OmbOahLoegrvkpckyhfx/ceYGzMRsoJj1e333CrpgmzsG+Ao92q8bEmcDfpT0qL+HjEdoLw+Ou8HNSlUPQUFxH/Ee1nclCXRfyDOKsj5smx2LfbE27VNOgN2Be/gnDDLIvxwAOkPxmt4v54TfX/BhIW4Uhdm0LRNX5PnHUwunswB7VZxX2UqxOwFrAS+3ab7lVQI76GfeHXuFVjbwLwKOlPQuvYIlaDdTEAODcHtSkUNeCXwCDi2yYHtVnHQ5Trk+7rsG+zL8VKNuZXAAdG3FZvfuuwDw+TCQN7pqVOxMH7DbbZBhwHfItwQoikUCP88PkgYXBybO8z2GbebEkYGLhR4jxi8bhH5W5m2PWxH6iyChjnVZChafisINVfLAWOwf7v9gy2n64cDMwzrkGh6B4LgHdipwV42riGdkIHfaHxfuqJFwidgaJbi3Cvsv675eqpyYexP0D+5FaNnTcAL5P+ZHuNsGAT+Hx6uEfWhuvHRoSJRlK3q6IacTNhdL6lvR3q+GvHvt5MPjoBc4BtM7dcerdg31Yf9CqmHldgX/BJbtXY2JF8/FJ9jX+faOgUh31enKnl6ncQ+Xi6oihnvAgchc9kLJc71NP1mpqXTsB8YOdMLZfeqdi30+Vu1fRjEOFxmGWxMaeWTWEPYBHpT67uN38IkypZj1xdjt/rm9HA59FSwop48TLwWfwmsBlHOGcsa1pF+Aqpq+0JM26mbu8lhCcgRTUB+1erC7EZeNqwt2J/QMRcXMbbwcAy0p9UXR/7d3e9w/5Pb7jlshnZsc8ZEXJXVDMeAE4jTNHt6RMRcu8vrutl33l5ErAMn4HlVjzmdtndrZo+fAf7Qj/pVk1cR+DzXWh/0dMv/66OdMjhEdLNY70t8N+EeQk8Vu1SFDPaCN+mn0X4BC+VR7Cvta+vc/LyJGA1YaByEXlM4PQtt2r68DD2hW7mVk08p5GPm01/N38Iv3CWOOSSh3d74wiLq3yeMDbhHuBJwviMFaT/eylsY0XH3/rJjr/9rwjHwmHkY1Ka3bFvg6X0vzJfXjoB7RTzB+AW2LfNDLdqerER9kXO8iomkhbCr83UJ06N+m7+nX7tkM8v6sxFpKp+hf15eGmdubwR+/Fd9cY3yPlKeD14Cvt2sf4apU8n9pJUzDjbrZrsBgLnk/5kqdHYzR/CWAXrnJbxnwOPRCRYF/vBfzUam0gmT52AcwmzgBbFOdi3yfFu1fTgd70kFTP2dasmm2HAVaQ/SWqEm3+jo2gH4zNHwRcbzEukKr6M/fk3h3CuN2Inwud5qa9rNcIn50MbzD+V/bBvj9+4VdNNC/afWi0GhngVlMEYwnSWqU+OGuH9Xm+j/fvjsZzzSxTjbyriaSjh5mx9/p3VZH556gTcCoxqsg5PQ7EfWzWHRK9Gtmoi2Ubj927VNG8i+fnUbBGwW4ZaNsFn7fEPZshRpIw+hP151w5MzZDjjuRjYGCN8EXP+hlq8eLxVHhzt2q6OLnJZBuJ49yqac5W5GfmufnAmyLUdLNDrv+MkKdIWbTg8yMixnTq2+DzpKKeeBab1UZjOgH7djjBrZouPKaqnOxWTeP2JD+PxF4lPKKL4T1OOb81Ur4iRecx73+NeIsXbUa+fvjsHqkuC1Oxb4N6v+qIpoXwLteyqDx//vc+8vPN+EvA9Ii1Dcanh39txJxFisxjDfmXaHzwX182JsylkPr6VyN8OfGeiLXFZv054At+pQSbR0q8r/iJWzWNycsEPzXC4iQWS2h6zWOwvUHuIkWyLT7jbr5pkPu6wIMOudcT7cCZBjXGcC729W/iVg0+7zUs19puxgDgh6Q/0DvjGWCKUa1T8bko/dYof5Gi8FhJtQ27a8V4woC81NfDzjib/M0V8G7s6/6wWzWEdw6WxawGxrpV0781gGtIf3B3xkxgQ9OK4SaHOtqweYIhUgTT8elo/9G4jjUJC7alvi52xlX0P9Wxp3HYPzX+lVs1hF+flsXc51ZJ/zYgjFpPfVB3xqP4fP7yTqd6LnGoRSSPLsPnHHuHQy1rEL7PT3197Iz7ydcS8g9gW6/bmLm1jAupkZ/pf3ckDLBIfTB3xj+BdUwrft1AfOayXk0xF3sSyWJzfMYSPYnfI/Fh+CwtXm88T37GGVm/Pm4nTEhnbh/jQmrk4/3/Owiz6qU+iDvjTvxXK/tIpNz7i1841SOSFx6L/tSAk7wK6jCYMD1t6utlZywD3mtacX08Pq/e06OQMxwKWdejkD58Gp93c/XGdcBw04p7NpKwdKp1fatwHsUqktA0wpMv6/NqLmmuGwOAC5vI1yragE+ZVty/9bGv8+MehVi/t3rCo4heDAUu6iWvVHExMMiy6H58vZe8YkeyRS1EnP0en3PqK14F9aAV+HEveaWKX5J2IaGZveQVK1zGU80yLsJ1NGMXE4C768zRK35IOJFS8lqitJ14sxmK5NXO+Fw78rD0dgt+c4rUG3cRrvUpXFxnjs3GY9YFjMH+0fjHrIvowZvJ12C/GvAt04ob83N8av6zV0EiifwVn3Ppp14F1SFPk6fVCMue725acc8+0WS+9UYb4WsMM281LqAG7GFZQA/eD7wWIe9Y0Y7Tu5wGbIbfCby/U00i3g7B5xxqI9EKcX04AlhJ+utrZywnrMDo6W2Rcu8rdrUs4BTj5NsJk0p4GAT8wLieRmMVcKRl0Rl4TYQ0g/SvPURiGwA8jM85lNdl1A8kX19W1YBz8BtjNdahHtOVAb9nnPyTlsl3MQG4w7iWRmMpcJBl0Rntjl9bfMCpJhEvH8Lv/HmLU03NeAth9dLU19uucQd+kwY9Y1zLty2Tt/4V6DESfHfCIjqpD7quMQ/YxbLoSG7Fpz1eBEY51SRibQ3CpDQe585NTjVlsQXwL9Jfd7vGK4Q5bqxZfwFyhWXyjxgn/1nD3Fs6tu/x/W0j8SSwqWHdMe2GX7uY9mRFHFk/Oe0aOzvVlNWGhGnNU19/u8Zq4HOEe4WVLxjXMMMq8VbCpyWWye9nlPta5Gsxn864B7+pfWO5EZ+2WUn4pSBSZNMJY3s8zpnrnWqKZSxwO+mvw93jGuxmXT3QOPclGHVgJhknXuvYR2y7AbMdcm/mZM3TilX1eiN+bXSzU02pTAJOBW4gfMO7hPTHpXUs6aj1BsKg4g0yt2J+tRA+bfVo13byM+99I4YCl5P+uOwes7H5VHCyQ+7rGeRt/gngSuIuWjEAOJP8PfKvAReQdna/rK7Gr63e7VSTpwnAz8jnsekdbYQbwEZZGjSnjsCvHU3f/RprIVyrUx+LPR2bZxP3Wj0I+/PeZDzZkcZJPx0x14n49bwbjTMj1pnKtvitlTCbYj4p6c2hwGLSH4d5i0XAwRnaNW9G4Te5WBvhVUPR5W3CoM64nbhPqqwHQJosfmS9MtxtkfJ8P/n7zKRGeA/oPfGEJc/HdmUZEJjXC1xeoo1wnSmD7+PXbr92qsnD4diPNWsmXiXcW2Kwng3SZAXIM42T/mXG/MaRr2Uou8Z8YO+M9eXNFvg9wl5N8dcJOBTd/OuJNor/JGBn/P7WqwmrC5bJzsAc0h+LPcVvgbUz1me9JsDnM+bXo7ONk/5qhtwOBl4yzq/ZmEn5TtBOnisnPgwM8SkruonosX8jsYiwfGoRDSMMcvRqq6w/nPJqY+Ah0h+LPcVLhGmdm/UN4/y+myG3Xllf7E9sIqd1CI+/Uh8QvcVt2H1Okgcb4/u47us+ZUV3PumPxaLFuU21dHqeq9+9RjkHT3YaTfhaJPWx2Fv8mrBaaqOsp9T/RRM59et646Q/0EAuLcBRhNmbUh8EvcV5wOAGaiqqr+HXpquAHX3KimYSGu3fTKzGb3rWWN6I79/6TJeq0hqA/dPnLDGfMLankfVLrKeFvrqBXOp2m3HS76kzjzeQ3xH+NcK7v0/UWUsZjACew699Z1CsjpX14Nkyx8lNtHcqQ/Bb7KdGGEk+3KWyfDiVfHekbyfcm+rxPuNcbqkzj4bcbJx0fwN/1iWsS5/ngVSLyfeCPlasD+ju8RWfsqL4A+mPy6LGdU20dyrW73W7h8mnXjm3H7CQ9Mdlb9FGuEf191rgMOM8/lRHWzbsj8ZJv72X/a4JfJkwMCj1H7iveBLYuv7mLJUW7D9t6RqrKM6c5zNJf2wWNR5ror1T2BXfX6e3YztffZ5NAx4n/bHZVywi3LN6W9r+AOP9/6H+5qyf9S+Zd3Xb39qEd1wLjPcbI24gzGtdZdvj+3TmGXo/wfJEo/+bj8VNtLe3sfiubLea+h81l9VowtOh1Mdnf7GA0BEY3y3/9xrv99qGW7QO1xonfQIwkDDl8MXAcuP9xYh2wqO/mFMYF9nP8W1/j+Wjs1IHoPlY2ER7e2oBrsS3TX7mUln+tRKuvV4zkmaJ5cAlhHvbQMIXb5b7uzJDu/bKeh3jJwgjKlP/seqNRcA7MrVo+YzH/4nN8S6VNS/vjyvzHI820d6erD/n6h7zyT4JTdm8i2ItojWfcK+z3MflmVq0Fz82TrpI8QSwZbbmLK2P4fu3WAZs41JZczQIsPnI8yDArQjf4Xu2R1mmSY5ta8IYrNTHa17i+/U2XCPfLs5u4P9bZlcTvkV/OHUiOXUO8KDj/oYSXhnl9ZOoPN/E8s7kXWYEIwivn4Y57nMG8BPH/RXJDMI1Weda8JzFRq1XA8x7rCR831/V0beN2IEwUt/z73OBS2WN24B8f7+c11hFficC8pwCu0Y51sLw0AJ8Fp1vJp+I7pGDwlLFsxTns7O8+Bb+f6e8PiL1HhxZhvhpUy1t7+P4t0Xdj3QFgN3xW4o5j2Fyr1ovB4WliN8BYyK0X9UMxXdRlBrhV+OeHsU1aAL5n8ciT7GQcL3Jm73x/3X5LDDSo7iSWZ8wX0LqY9k72gkr45qYlYMCvWI5YZSvNO8t+M/c+Ar5XCBlP/Rosp5oI5+zaU4B5uHfHvt7FFdSAwkLiOV59tjYYfrlzC9zUKBHPI4m24jl+/j//f5JGKiVN7EFoFcAAApGSURBVB+hWhejRqONMOd73owkDGz1bo9fONRWBXvgu15JyjBdRfO4HBRoGe2EiTb0yC2e4aSZDvd35HPA5sHodUBPsRA4MEO7WmkBLsO/PZ6jGDNdFsVo8r10fKz4QKwG68lEyvsYczawT7ymki72JM2MXV/wKK4JaxOWOPX+UiKP0QZcSD7f+UOYytW7TdqBfT2Kq6CT8J+/wStW0f9CRJndkINCY8fFqLdt7af4/13bgWM8imvSRMKSt9cT3t1VYdrgxR21Xke4GOf1Uz9I98RT0/3a2gK4i/TnQuy4JmYj9ebdiYqziFf4z0WIxMYo0szWtQoNpJLGHUyap50zgTUc6qu6gcAZhJlEU9+HYoXL1PRDKP6AinbCgEbNq+3rTaR57L0ETaQi9dsZWIr/cboSHafeNgfuJP09KWv8CxgcuW16dbRDQVbxBGFVJknj86T5u78MbOJQnxTbNGAuaY7RzzjUJ/9pAPBJiv004IjordKHVuBegyIsYyVhdrqhBu0h9WsFbiHNMfAUDoNkpLDWB54mzbH5Z7SseGpTCCvppb5XNRr30di6PlHsRJgsJ3Xx9cT1hJ695MMGpJlUpfNk0YBP6W4t4AHSHJOvkO/BkFWzP/ZL9saKZcB2Ns3QvxPrSDBlPEo+vy2WcJKlmhTnPmCsfYlSEGOAe0hzLLYBb7cvURo0CDiN/M/ZcaxVA9TrZ6RvhO4xBzgePVLLu2+Q7hi5G63xIOFp0D9Idxx+1b5EyWAicB7hFXLq+1r3+JFh3XVrAX5M+saoER6lfQZ9RlMUA4FbSXe83EWYIUyqKeUv/xpwE/qRUhSTgfPJz+RdPyBHM522EGbMSvVIdw5hFKem8C2edYEXSXci/Z0wR4FUy2jSTgbzPLCOeZUS2xTgAtJ1BNqAL5pX2aR9CZ9beTXGY4QV+4Z7FCdmdgFWkO5i/DfUCaiSUYSOX6rjbTlGa7aLmynAOYQ1LLyOm5cJS1Ln2jrYLrqwGriS0BC5eQQimR1PugtyjTAZiNk62pIb4wjjP1Ieax8yr1K8rEGYztvymFoF/JCCXZ/2Jl4vu53wK+10YIJnEeLqJ6S9MD8KTDKvUlLZiPDUMOUxdo51kZLMNOArhOXIYxwry4BLKfgn7PsQlmZtdJallwjLcJ6ILspVMQi4nbQX6OeALa0LFXfTCe/dUx5btxCOcSm/DQif6F1A+GFR72qo84EbgRNw+ErJ8xH6MMJ7r+0IU7KO4/XR+vMJ71KeBB4HHiZMxCDVM57wOH7jhDnMBw4C7kiYg8SzG3AVaT/7fJKwFsbchDlIOsOBqYSxA2sTBqEOISxNPL8jHgJmpUpQJC+mAa+S9tfacuBw60LF3MGkX/99HrCZdaEiImWxJ2m/DKgRBt8cY12omDmONEv6do0VwO7WhYqIlM17qf/dmWX8jDBpkRTDAMLCX6mPm3bgKONaRURK60ukv5DXCANztIhQ/q1FmGEv9fFSA75gXKuISOl9n/QX8xowE30hkGebkf4zv87IxTztIiJF10r4Hjb1Rb1GWB3sUNtypQn7AwtIf3zUgEtIsD67iEhZDQKuJ/3FvUZ4t/stNBNlHrQAZ5BuHZLu8SfC510iIhLRSNLO4d49fg+MNa1Y+jIOuJr0x0Fn/BWtSyIiYmY06edy7xqzCRPNiK89CLM2pv77d8Y/0CBRERFzY4B7SX/R74zVhFcCmubV3gDgTNJ/39817kdPgkRE3IwDHiT9xb9r/J20UxiX3QakXyuiezxA+PRQREQcrQM8QvqbQNeYCxxiWXRFvYP000N3jwcJ87qLiEgC4wm/wlLfDLpGO3AuaRefKYsxwPmk/5t2j39QsPXZRUTKaAz5+jqgM14k/HKV5hxAGGSZ+u/YPe5B7/xFRHJjJHAz6W8OPcXl6FFxI8YDF5L+79ZT/JnXlzEXEZGcGEGYiCX1TaKneAV4n13ppXEEYRxF6r9XT3E9MMyudBERyWIwYSrW1DeLvm4iG5hVX1zrESZWSv336S0uQp95iojkXgtwFulvGr3FEsK37EON6i+SwcBpwELS/116i7PR3P4iIoVyGvmZI76n+BfVXi/+IOBJ0v8deot24JNm1YuIiKkjgBWkv5n0FTcBW1k1QA5tTX4HbHbGcuC9Vg0gIiI+dgbmkP6m0le0EUa+jzdqgzwYS3icvor07d1XzEXrO4iIlMYU8jdrYE8xDzidco0PGAp8jPzN5NdTPAhsZNIKIiKSzBrANaS/ydQTcwjr3Be5IzAYOI58rdrXV9xAWG1SRERKaCDwfdLfbOqNZ4APU6xP0AYBxwPPkr796o3vEFYaFBGRkvsvwud4qW88jXQEjiN0YPKqFXgXMJP07VVvLAbeY9EYIiKSX1sDs0h/E2okngCOJF8dgYGEzxmLdOPvbMsqfX0hIiJdjAKuIP3NqNF4gTCZUMpFaUYR5lp4hvTt0Whci1ZrFBGpvFbgs+T/87SeYhFhTMPk6K3SuymEz/kWR6zDK1YCnyLMFikiIgLATuR7Zrq+oo3whcNe0VvlddsT5iooYkepRhiU+JborSIiIqWwJsV8JdA17iYMchwSoT2GEFYxvCcHdWWJy9EnfiIiUoeTgNdIf+PKEnMJj+q3aaL+bTr+23k5qCNLLCV8PSEiIlK3zQm/plPfxGLEw4SJhcb1Ue9ows3yrznIN0bcBWzWR70iIiK9Gki4ceZ9QaF6YznhcfhBhIlvWoFdgJ9RrHkR+opVwLco1uRJIiKSU9sTfkWnvrnFjKc7InUeMWMGsG0vf0MREZGmDAW+SfiULPWNTvHvsRL4KnEGPoqIiPRoOnAn6W96ihD/ALbr8y8mIiISSSthwNwi0t8AqxpLCeMztIiPiIi425DiLDFcprgCmFjH30dERMTUXsAjpL8xlj2eAPav828iIiLiYhBhcRy9FogfSwiLH2mQn4iI5NZE4FKgnfQ3zqJHO3ARsH5DfwEREZGEdgRuI/1NtKhxB1q8R0RECmwvwgQ1qW+oRYlHgHc11dIiIiI5MxA4HniR9DfYvMZzwDHosz4RESmh4YSBgi+Q/oabl3iZ8D3/sAztKiIiUggjCB2BKj8ReIVw4x+esS1FREQKZyTwGWAu6W/Injf+TxE6QSIiIpXW+UTgWdLfoK3imY4adeMXERHpZhBhBPw9pL9hx4oHgKM6ahMREZE+tAAHUOx5BG4G9u2oRURERBo0DTibMB1u6pt6f7EMuBDY2qQlREREKmg04R36U6S/0XePJwkj+tcyq15ERKTiBgCHANcBq0l3019NWAr5QKDVtGIRERH5N+sTfnnPwu/G/y/gW8CGDvWJiIhIP7YHfgYsJf5NfzlwOWFdAw3qExERyaHRhM/urgFW0fxNvw34K2Hcgd7ti4iIFMhawHGEG3k79d34Hya8VlgvQb4i4kSP8kSqYwpwGLA7MB1Yu+PfvwI8SJhz4ErCiH4RERERERERERERERERERERERERERERERERERERERERERFx8n+kRDFs9yDRiwAAAABJRU5ErkJggg==;" vertex="1" parent="1">
          <mxGeometry x="739" y="76" width="42" height="42" as="geometry" />
        </mxCell>
        <mxCell id="rBa0YoAANimObUDzyaQW-30" value="Pepper" style="text;html=1;align=center;verticalAlign=middle;resizable=0;points=[];autosize=1;strokeColor=none;fillColor=none;" vertex="1" parent="1">
          <mxGeometry x="730" y="119" width="60" height="30" as="geometry" />
        </mxCell>
        <mxCell id="rBa0YoAANimObUDzyaQW-37" value="application pepper" style="text;html=1;align=center;verticalAlign=middle;resizable=0;points=[];autosize=1;strokeColor=none;fillColor=none;" vertex="1" parent="1">
          <mxGeometry x="825" y="116" width="120" height="30" as="geometry" />
        </mxCell>
        <mxCell id="rBa0YoAANimObUDzyaQW-38" value="" style="whiteSpace=wrap;html=1;shape=mxgraph.basic.document" vertex="1" parent="1">
          <mxGeometry x="987" y="80" width="26" height="30" as="geometry" />
        </mxCell>
        <mxCell id="rBa0YoAANimObUDzyaQW-39" value="indice.json" style="text;html=1;align=center;verticalAlign=middle;resizable=0;points=[];autosize=1;strokeColor=none;fillColor=none;" vertex="1" parent="1">
          <mxGeometry x="960" y="116" width="80" height="30" as="geometry" />
        </mxCell>
        <mxCell id="rBa0YoAANimObUDzyaQW-40" value="" style="whiteSpace=wrap;html=1;shape=mxgraph.basic.document" vertex="1" parent="1">
          <mxGeometry x="872" y="80" width="26" height="30" as="geometry" />
        </mxCell>
        <mxCell id="rBa0YoAANimObUDzyaQW-42" value="" style="endArrow=none;dashed=1;html=1;rounded=0;" edge="1" parent="1">
          <mxGeometry width="50" height="50" relative="1" as="geometry">
            <mxPoint x="640" y="560" as="sourcePoint" />
            <mxPoint x="640" y="140" as="targetPoint" />
          </mxGeometry>
        </mxCell>
        <mxCell id="rBa0YoAANimObUDzyaQW-43" value="" style="endArrow=none;dashed=1;html=1;rounded=0;" edge="1" parent="1" source="rBa0YoAANimObUDzyaQW-118">
          <mxGeometry width="50" height="50" relative="1" as="geometry">
            <mxPoint x="760" y="680" as="sourcePoint" />
            <mxPoint x="760" y="140" as="targetPoint" />
          </mxGeometry>
        </mxCell>
        <mxCell id="rBa0YoAANimObUDzyaQW-44" value="" style="endArrow=none;dashed=1;html=1;rounded=0;" edge="1" parent="1" source="rBa0YoAANimObUDzyaQW-123">
          <mxGeometry width="50" height="50" relative="1" as="geometry">
            <mxPoint x="880" y="680" as="sourcePoint" />
            <mxPoint x="880" y="140" as="targetPoint" />
          </mxGeometry>
        </mxCell>
        <mxCell id="rBa0YoAANimObUDzyaQW-45" value="" style="endArrow=none;dashed=1;html=1;rounded=0;" edge="1" parent="1">
          <mxGeometry width="50" height="50" relative="1" as="geometry">
            <mxPoint x="1000" y="560" as="sourcePoint" />
            <mxPoint x="999.5" y="140" as="targetPoint" />
          </mxGeometry>
        </mxCell>
        <mxCell id="rBa0YoAANimObUDzyaQW-49" value="" style="endArrow=none;dashed=1;html=1;rounded=0;" edge="1" parent="1">
          <mxGeometry width="50" height="50" relative="1" as="geometry">
            <mxPoint x="280" y="560" as="sourcePoint" />
            <mxPoint x="280" y="140" as="targetPoint" />
          </mxGeometry>
        </mxCell>
        <mxCell id="rBa0YoAANimObUDzyaQW-50" value="" style="endArrow=none;dashed=1;html=1;rounded=0;" edge="1" parent="1">
          <mxGeometry width="50" height="50" relative="1" as="geometry">
            <mxPoint x="400" y="560" as="sourcePoint" />
            <mxPoint x="399.5" y="140" as="targetPoint" />
          </mxGeometry>
        </mxCell>
        <mxCell id="rBa0YoAANimObUDzyaQW-52" value="" style="endArrow=classic;html=1;rounded=0;" edge="1" parent="1">
          <mxGeometry width="50" height="50" relative="1" as="geometry">
            <mxPoint x="280" y="199" as="sourcePoint" />
            <mxPoint x="160" y="199" as="targetPoint" />
          </mxGeometry>
        </mxCell>
        <mxCell id="rBa0YoAANimObUDzyaQW-53" value="" style="endArrow=classic;html=1;rounded=0;" edge="1" parent="1">
          <mxGeometry width="50" height="50" relative="1" as="geometry">
            <mxPoint x="400" y="229" as="sourcePoint" />
            <mxPoint x="160" y="229" as="targetPoint" />
          </mxGeometry>
        </mxCell>
        <mxCell id="rBa0YoAANimObUDzyaQW-54" value="" style="endArrow=classic;html=1;rounded=0;" edge="1" parent="1">
          <mxGeometry width="50" height="50" relative="1" as="geometry">
            <mxPoint x="160" y="259" as="sourcePoint" />
            <mxPoint x="40" y="259" as="targetPoint" />
          </mxGeometry>
        </mxCell>
        <mxCell id="rBa0YoAANimObUDzyaQW-56" value="" style="endArrow=classic;html=1;rounded=0;" edge="1" parent="1">
          <mxGeometry width="50" height="50" relative="1" as="geometry">
            <mxPoint x="160" y="319" as="sourcePoint" />
            <mxPoint x="280" y="319" as="targetPoint" />
          </mxGeometry>
        </mxCell>
        <mxCell id="rBa0YoAANimObUDzyaQW-57" value="" style="endArrow=classic;html=1;rounded=0;" edge="1" parent="1">
          <mxGeometry width="50" height="50" relative="1" as="geometry">
            <mxPoint x="160" y="349" as="sourcePoint" />
            <mxPoint x="40" y="349" as="targetPoint" />
          </mxGeometry>
        </mxCell>
        <mxCell id="rBa0YoAANimObUDzyaQW-60" value="" style="endArrow=classic;html=1;rounded=0;" edge="1" parent="1">
          <mxGeometry width="50" height="50" relative="1" as="geometry">
            <mxPoint x="160" y="440" as="sourcePoint" />
            <mxPoint x="40" y="440" as="targetPoint" />
          </mxGeometry>
        </mxCell>
        <mxCell id="rBa0YoAANimObUDzyaQW-61" value="" style="rounded=0;whiteSpace=wrap;html=1;" vertex="1" parent="1">
          <mxGeometry x="150" y="199" width="10" height="60" as="geometry" />
        </mxCell>
        <mxCell id="rBa0YoAANimObUDzyaQW-67" value="" style="rounded=0;whiteSpace=wrap;html=1;" vertex="1" parent="1">
          <mxGeometry x="150" y="299" width="10" height="50" as="geometry" />
        </mxCell>
        <mxCell id="rBa0YoAANimObUDzyaQW-55" value="" style="endArrow=classic;html=1;rounded=0;" edge="1" parent="1">
          <mxGeometry width="50" height="50" relative="1" as="geometry">
            <mxPoint x="40" y="299" as="sourcePoint" />
            <mxPoint x="160" y="299" as="targetPoint" />
          </mxGeometry>
        </mxCell>
        <mxCell id="rBa0YoAANimObUDzyaQW-73" value="" style="rounded=0;whiteSpace=wrap;html=1;" vertex="1" parent="1">
          <mxGeometry x="150" y="390" width="10" height="50" as="geometry" />
        </mxCell>
        <mxCell id="rBa0YoAANimObUDzyaQW-58" value="" style="endArrow=classic;html=1;rounded=0;" edge="1" parent="1">
          <mxGeometry width="50" height="50" relative="1" as="geometry">
            <mxPoint x="40" y="389" as="sourcePoint" />
            <mxPoint x="160" y="389" as="targetPoint" />
          </mxGeometry>
        </mxCell>
        <mxCell id="rBa0YoAANimObUDzyaQW-75" value="" style="endArrow=none;dashed=1;html=1;rounded=0;" edge="1" parent="1">
          <mxGeometry width="50" height="50" relative="1" as="geometry">
            <mxPoint x="160" y="560" as="sourcePoint" />
            <mxPoint x="160" y="140" as="targetPoint" />
          </mxGeometry>
        </mxCell>
        <mxCell id="rBa0YoAANimObUDzyaQW-76" value="" style="endArrow=none;dashed=1;html=1;rounded=0;" edge="1" parent="1" source="rBa0YoAANimObUDzyaQW-65">
          <mxGeometry width="50" height="50" relative="1" as="geometry">
            <mxPoint x="40" y="560" as="sourcePoint" />
            <mxPoint x="40" y="146" as="targetPoint" />
          </mxGeometry>
        </mxCell>
        <mxCell id="rBa0YoAANimObUDzyaQW-77" value="Commencer&amp;nbsp;&lt;div&gt;l&#39;escape&amp;nbsp;&lt;span style=&quot;background-color: transparent; color: light-dark(rgb(0, 0, 0), rgb(255, 255, 255));&quot;&gt;game&lt;/span&gt;&lt;/div&gt;" style="text;html=1;align=center;verticalAlign=middle;resizable=0;points=[];autosize=1;strokeColor=none;fillColor=none;" vertex="1" parent="1">
          <mxGeometry x="170" y="163" width="100" height="40" as="geometry" />
        </mxCell>
        <mxCell id="rBa0YoAANimObUDzyaQW-79" value="Lis son texte" style="text;html=1;align=center;verticalAlign=middle;resizable=0;points=[];autosize=1;strokeColor=none;fillColor=none;" vertex="1" parent="1">
          <mxGeometry x="50" y="229" width="90" height="30" as="geometry" />
        </mxCell>
        <mxCell id="rBa0YoAANimObUDzyaQW-80" value="Rentre le code&amp;nbsp;" style="text;html=1;align=center;verticalAlign=middle;resizable=0;points=[];autosize=1;strokeColor=none;fillColor=none;" vertex="1" parent="1">
          <mxGeometry x="45" y="275" width="100" height="30" as="geometry" />
        </mxCell>
        <mxCell id="rBa0YoAANimObUDzyaQW-81" value="Informe en mqtt" style="text;html=1;align=center;verticalAlign=middle;resizable=0;points=[];autosize=1;strokeColor=none;fillColor=none;" vertex="1" parent="1">
          <mxGeometry x="160" y="294" width="110" height="30" as="geometry" />
        </mxCell>
        <mxCell id="rBa0YoAANimObUDzyaQW-82" value="Hstoire" style="text;html=1;align=center;verticalAlign=middle;resizable=0;points=[];autosize=1;strokeColor=none;fillColor=none;" vertex="1" parent="1">
          <mxGeometry x="310" y="204" width="60" height="30" as="geometry" />
        </mxCell>
        <mxCell id="rBa0YoAANimObUDzyaQW-83" value="Joue" style="text;html=1;align=center;verticalAlign=middle;resizable=0;points=[];autosize=1;strokeColor=none;fillColor=none;" vertex="1" parent="1">
          <mxGeometry x="-15" y="264" width="50" height="30" as="geometry" />
        </mxCell>
        <mxCell id="rBa0YoAANimObUDzyaQW-86" value="" style="endArrow=none;dashed=1;html=1;rounded=0;" edge="1" parent="1" source="rBa0YoAANimObUDzyaQW-71" target="rBa0YoAANimObUDzyaQW-65">
          <mxGeometry width="50" height="50" relative="1" as="geometry">
            <mxPoint x="40" y="560" as="sourcePoint" />
            <mxPoint x="40" y="146" as="targetPoint" />
          </mxGeometry>
        </mxCell>
        <mxCell id="rBa0YoAANimObUDzyaQW-65" value="" style="rounded=0;whiteSpace=wrap;html=1;" vertex="1" parent="1">
          <mxGeometry x="35" y="259" width="10" height="40" as="geometry" />
        </mxCell>
        <mxCell id="rBa0YoAANimObUDzyaQW-88" value="" style="endArrow=none;dashed=1;html=1;rounded=0;" edge="1" parent="1" target="rBa0YoAANimObUDzyaQW-71">
          <mxGeometry width="50" height="50" relative="1" as="geometry">
            <mxPoint x="40" y="560" as="sourcePoint" />
            <mxPoint x="40" y="299" as="targetPoint" />
          </mxGeometry>
        </mxCell>
        <mxCell id="rBa0YoAANimObUDzyaQW-71" value="" style="rounded=0;whiteSpace=wrap;html=1;" vertex="1" parent="1">
          <mxGeometry x="35" y="349" width="10" height="40" as="geometry" />
        </mxCell>
        <mxCell id="rBa0YoAANimObUDzyaQW-89" value="Joue" style="text;html=1;align=center;verticalAlign=middle;resizable=0;points=[];autosize=1;strokeColor=none;fillColor=none;" vertex="1" parent="1">
          <mxGeometry x="-15" y="354" width="50" height="30" as="geometry" />
        </mxCell>
        <mxCell id="rBa0YoAANimObUDzyaQW-90" value="Lis son texte" style="text;html=1;align=center;verticalAlign=middle;resizable=0;points=[];autosize=1;strokeColor=none;fillColor=none;" vertex="1" parent="1">
          <mxGeometry x="50" y="324" width="90" height="30" as="geometry" />
        </mxCell>
        <mxCell id="rBa0YoAANimObUDzyaQW-91" value="Rentre le code&amp;nbsp;" style="text;html=1;align=center;verticalAlign=middle;resizable=0;points=[];autosize=1;strokeColor=none;fillColor=none;" vertex="1" parent="1">
          <mxGeometry x="45" y="365" width="100" height="30" as="geometry" />
        </mxCell>
        <mxCell id="rBa0YoAANimObUDzyaQW-93" value="" style="endArrow=classic;html=1;rounded=0;" edge="1" parent="1">
          <mxGeometry width="50" height="50" relative="1" as="geometry">
            <mxPoint x="160" y="410" as="sourcePoint" />
            <mxPoint x="160" y="410" as="targetPoint" />
          </mxGeometry>
        </mxCell>
        <mxCell id="rBa0YoAANimObUDzyaQW-94" value="Lis son texte" style="text;html=1;align=center;verticalAlign=middle;resizable=0;points=[];autosize=1;strokeColor=none;fillColor=none;" vertex="1" parent="1">
          <mxGeometry x="50" y="419" width="90" height="30" as="geometry" />
        </mxCell>
        <mxCell id="rBa0YoAANimObUDzyaQW-95" value="" style="shape=waypoint;sketch=0;size=6;pointerEvents=1;points=[];fillColor=none;resizable=0;rotatable=0;perimeter=centerPerimeter;snapToPoint=1;" vertex="1" parent="1">
          <mxGeometry x="90" y="480" width="20" height="20" as="geometry" />
        </mxCell>
        <mxCell id="rBa0YoAANimObUDzyaQW-96" value="" style="shape=waypoint;sketch=0;size=6;pointerEvents=1;points=[];fillColor=none;resizable=0;rotatable=0;perimeter=centerPerimeter;snapToPoint=1;" vertex="1" parent="1">
          <mxGeometry x="70" y="480" width="20" height="20" as="geometry" />
        </mxCell>
        <mxCell id="rBa0YoAANimObUDzyaQW-97" value="Lis son texte" style="text;html=1;align=center;verticalAlign=middle;resizable=0;points=[];autosize=1;strokeColor=none;fillColor=none;" vertex="1" parent="1">
          <mxGeometry x="70" y="249" width="90" height="30" as="geometry" />
        </mxCell>
        <mxCell id="rBa0YoAANimObUDzyaQW-98" value="" style="shape=waypoint;sketch=0;size=6;pointerEvents=1;points=[];fillColor=none;resizable=0;rotatable=0;perimeter=centerPerimeter;snapToPoint=1;" vertex="1" parent="1">
          <mxGeometry x="110" y="480" width="20" height="20" as="geometry" />
        </mxCell>
        <mxCell id="rBa0YoAANimObUDzyaQW-99" value="" style="endArrow=classic;html=1;rounded=0;" edge="1" parent="1">
          <mxGeometry width="50" height="50" relative="1" as="geometry">
            <mxPoint x="160" y="415" as="sourcePoint" />
            <mxPoint x="280" y="415" as="targetPoint" />
          </mxGeometry>
        </mxCell>
        <mxCell id="rBa0YoAANimObUDzyaQW-121" value="" style="rounded=0;whiteSpace=wrap;html=1;" vertex="1" parent="1">
          <mxGeometry x="756" y="299" width="10" height="31" as="geometry" />
        </mxCell>
        <mxCell id="rBa0YoAANimObUDzyaQW-100" value="Informe en mqtt" style="text;html=1;align=center;verticalAlign=middle;resizable=0;points=[];autosize=1;strokeColor=none;fillColor=none;" vertex="1" parent="1">
          <mxGeometry x="160" y="390" width="110" height="30" as="geometry" />
        </mxCell>
        <mxCell id="rBa0YoAANimObUDzyaQW-101" value="" style="endArrow=classic;html=1;rounded=0;" edge="1" parent="1">
          <mxGeometry width="50" height="50" relative="1" as="geometry">
            <mxPoint x="640" y="199" as="sourcePoint" />
            <mxPoint x="760" y="199" as="targetPoint" />
          </mxGeometry>
        </mxCell>
        <mxCell id="rBa0YoAANimObUDzyaQW-102" value="Appui sur tÃªte" style="text;html=1;align=center;verticalAlign=middle;resizable=0;points=[];autosize=1;strokeColor=none;fillColor=none;" vertex="1" parent="1">
          <mxGeometry x="651" y="169" width="100" height="30" as="geometry" />
        </mxCell>
        <mxCell id="rBa0YoAANimObUDzyaQW-104" value="" style="endArrow=classic;html=1;rounded=0;" edge="1" parent="1">
          <mxGeometry width="50" height="50" relative="1" as="geometry">
            <mxPoint x="761" y="249" as="sourcePoint" />
            <mxPoint x="641" y="249" as="targetPoint" />
          </mxGeometry>
        </mxCell>
        <mxCell id="rBa0YoAANimObUDzyaQW-105" value="&quot;Ou en Ãªtes vous ?&quot;" style="text;html=1;align=center;verticalAlign=middle;resizable=0;points=[];autosize=1;strokeColor=none;fillColor=none;" vertex="1" parent="1">
          <mxGeometry x="636" y="219" width="130" height="30" as="geometry" />
        </mxCell>
        <mxCell id="rBa0YoAANimObUDzyaQW-106" value="" style="endArrow=classic;html=1;rounded=0;" edge="1" parent="1">
          <mxGeometry width="50" height="50" relative="1" as="geometry">
            <mxPoint x="640" y="298.43" as="sourcePoint" />
            <mxPoint x="760" y="298.43" as="targetPoint" />
          </mxGeometry>
        </mxCell>
        <mxCell id="rBa0YoAANimObUDzyaQW-123" value="" style="rounded=0;whiteSpace=wrap;html=1;" vertex="1" parent="1">
          <mxGeometry x="875" y="327.43" width="10" height="51" as="geometry" />
        </mxCell>
        <mxCell id="rBa0YoAANimObUDzyaQW-107" value="Atelier, premier indice" style="text;html=1;align=center;verticalAlign=middle;resizable=0;points=[];autosize=1;strokeColor=none;fillColor=none;" vertex="1" parent="1">
          <mxGeometry x="631" y="268.43" width="140" height="30" as="geometry" />
        </mxCell>
        <mxCell id="rBa0YoAANimObUDzyaQW-108" value="" style="endArrow=classic;html=1;rounded=0;" edge="1" parent="1">
          <mxGeometry width="50" height="50" relative="1" as="geometry">
            <mxPoint x="760" y="329" as="sourcePoint" />
            <mxPoint x="880" y="329" as="targetPoint" />
          </mxGeometry>
        </mxCell>
        <mxCell id="rBa0YoAANimObUDzyaQW-109" value="Atelier, premier indice" style="text;html=1;align=center;verticalAlign=middle;resizable=0;points=[];autosize=1;strokeColor=none;fillColor=none;" vertex="1" parent="1">
          <mxGeometry x="755" y="298.43" width="140" height="30" as="geometry" />
        </mxCell>
        <mxCell id="rBa0YoAANimObUDzyaQW-112" value="" style="endArrow=classic;html=1;rounded=0;" edge="1" parent="1">
          <mxGeometry width="50" height="50" relative="1" as="geometry">
            <mxPoint x="1000" y="348.43" as="sourcePoint" />
            <mxPoint x="880" y="348.43" as="targetPoint" />
          </mxGeometry>
        </mxCell>
        <mxCell id="rBa0YoAANimObUDzyaQW-113" value="Liste des indices" style="text;html=1;align=center;verticalAlign=middle;resizable=0;points=[];autosize=1;strokeColor=none;fillColor=none;" vertex="1" parent="1">
          <mxGeometry x="885" y="318.43" width="110" height="30" as="geometry" />
        </mxCell>
        <mxCell id="rBa0YoAANimObUDzyaQW-114" value="" style="endArrow=classic;html=1;rounded=0;" edge="1" parent="1">
          <mxGeometry width="50" height="50" relative="1" as="geometry">
            <mxPoint x="880" y="378.43" as="sourcePoint" />
            <mxPoint x="760" y="378.43" as="targetPoint" />
          </mxGeometry>
        </mxCell>
        <mxCell id="rBa0YoAANimObUDzyaQW-115" value="Votre indice" style="text;html=1;align=center;verticalAlign=middle;resizable=0;points=[];autosize=1;strokeColor=none;fillColor=none;" vertex="1" parent="1">
          <mxGeometry x="775" y="348.43" width="90" height="30" as="geometry" />
        </mxCell>
        <mxCell id="rBa0YoAANimObUDzyaQW-116" value="" style="endArrow=classic;html=1;rounded=0;" edge="1" parent="1">
          <mxGeometry width="50" height="50" relative="1" as="geometry">
            <mxPoint x="761" y="408.43" as="sourcePoint" />
            <mxPoint x="641" y="408.43" as="targetPoint" />
          </mxGeometry>
        </mxCell>
        <mxCell id="rBa0YoAANimObUDzyaQW-117" value="Votre indice" style="text;html=1;align=center;verticalAlign=middle;resizable=0;points=[];autosize=1;strokeColor=none;fillColor=none;" vertex="1" parent="1">
          <mxGeometry x="656" y="378.43" width="90" height="30" as="geometry" />
        </mxCell>
        <mxCell id="rBa0YoAANimObUDzyaQW-119" value="" style="endArrow=none;dashed=1;html=1;rounded=0;" edge="1" parent="1" source="rBa0YoAANimObUDzyaQW-121" target="rBa0YoAANimObUDzyaQW-118">
          <mxGeometry width="50" height="50" relative="1" as="geometry">
            <mxPoint x="760" y="680" as="sourcePoint" />
            <mxPoint x="760" y="140" as="targetPoint" />
          </mxGeometry>
        </mxCell>
        <mxCell id="rBa0YoAANimObUDzyaQW-118" value="" style="rounded=0;whiteSpace=wrap;html=1;" vertex="1" parent="1">
          <mxGeometry x="755" y="199" width="10" height="51" as="geometry" />
        </mxCell>
        <mxCell id="rBa0YoAANimObUDzyaQW-120" value="" style="rounded=0;whiteSpace=wrap;html=1;" vertex="1" parent="1">
          <mxGeometry x="631" y="247.43" width="10" height="51" as="geometry" />
        </mxCell>
        <mxCell id="rBa0YoAANimObUDzyaQW-122" value="" style="endArrow=none;dashed=1;html=1;rounded=0;" edge="1" parent="1" source="rBa0YoAANimObUDzyaQW-125" target="rBa0YoAANimObUDzyaQW-121">
          <mxGeometry width="50" height="50" relative="1" as="geometry">
            <mxPoint x="760" y="680" as="sourcePoint" />
            <mxPoint x="765" y="250" as="targetPoint" />
          </mxGeometry>
        </mxCell>
        <mxCell id="rBa0YoAANimObUDzyaQW-124" value="" style="endArrow=none;dashed=1;html=1;rounded=0;" edge="1" parent="1" target="rBa0YoAANimObUDzyaQW-123">
          <mxGeometry width="50" height="50" relative="1" as="geometry">
            <mxPoint x="880" y="560" as="sourcePoint" />
            <mxPoint x="880" y="140" as="targetPoint" />
          </mxGeometry>
        </mxCell>
        <mxCell id="rBa0YoAANimObUDzyaQW-126" value="" style="endArrow=none;dashed=1;html=1;rounded=0;" edge="1" parent="1" target="rBa0YoAANimObUDzyaQW-125">
          <mxGeometry width="50" height="50" relative="1" as="geometry">
            <mxPoint x="760" y="560" as="sourcePoint" />
            <mxPoint x="761" y="330" as="targetPoint" />
          </mxGeometry>
        </mxCell>
        <mxCell id="rBa0YoAANimObUDzyaQW-125" value="" style="rounded=0;whiteSpace=wrap;html=1;" vertex="1" parent="1">
          <mxGeometry x="755" y="378.43" width="10" height="111.57" as="geometry" />
        </mxCell>
        <mxCell id="rBa0YoAANimObUDzyaQW-129" value="&lt;div&gt;&lt;br&gt;&lt;/div&gt;&lt;div&gt;&lt;br&gt;&lt;/div&gt;" style="ellipse;shape=umlControl;whiteSpace=wrap;html=1;" vertex="1" parent="1">
          <mxGeometry x="760" y="480" width="34" height="31" as="geometry" />
        </mxCell>
        <mxCell id="rBa0YoAANimObUDzyaQW-130" value="Timer entre&amp;nbsp;&lt;div&gt;chaque indices&lt;/div&gt;" style="text;html=1;align=center;verticalAlign=middle;resizable=0;points=[];autosize=1;strokeColor=none;fillColor=none;" vertex="1" parent="1">
          <mxGeometry x="760" y="440" width="100" height="40" as="geometry" />
        </mxCell>
      </root>
    </mxGraphModel>
  </diagram>
</mxfile>
